Amstlevar-Italic-opsz8-wght100-wdth100.ufo
<glyph name="exclam" format="2">
  <advance width="664"/>
  <unicode hex="0021"/>
  <outline>
    <contour>
      <point x="124.0" y="80.0" type="qcurve" smooth="yes"/>
      <point x="124.0" y="120.0"/>
      <point x="183.0" y="183.0"/>
      <point x="230.0" y="183.0" type="qcurve" smooth="yes"/>
      <point x="278.0" y="183.0"/>
      <point x="338.0" y="120.0"/>
      <point x="338.0" y="80.0" type="qcurve" smooth="yes"/>
      <point x="338.0" y="38.0"/>
      <point x="278.0" y="-24.0"/>
      <point x="230.0" y="-24.0" type="qcurve" smooth="yes"/>
      <point x="183.0" y="-24.0"/>
      <point x="124.0" y="38.0"/>
    </contour>
    <contour>
      <point x="402.0" y="1378.0" type="line" smooth="yes"/>
      <point x="407.0" y="1446.0"/>
      <point x="452.0" y="1557.0"/>
      <point x="501.0" y="1557.0" type="qcurve" smooth="yes"/>
      <point x="545.0" y="1557.0"/>
      <point x="582.0" y="1453.0"/>
      <point x="563.0" y="1385.0" type="qcurve" smooth="yes"/>
      <point x="487.0" y="1111.0" type="line"/>
      <point x="415.0" y="803.0" type="line"/>
      <point x="332.0" y="477.0" type="line"/>
      <point x="287.0" y="486.0" type="line"/>
      <point x="331.0" y="797.0" type="line"/>
      <point x="381.0" y="1105.0" type="line"/>
    </contour>
  </outline>
</glyph>
<glyph name="quotedbl" format="2">
  <advance width="753"/>
  <unicode hex="0022"/>
  <outline>
    <contour>
      <point x="245.0" y="939.0" type="line"/>
      <point x="285.0" y="1403.0" type="line" smooth="yes"/>
      <point x="292" y="1487"/>
      <point x="334" y="1562"/>
      <point x="373.0" y="1562.0" type="qcurve" smooth="yes"/>
      <point x="418.0" y="1562.0"/>
      <point x="429" y="1456"/>
      <point x="415.0" y="1403.0" type="qcurve" smooth="yes"/>
      <point x="289.0" y="934.0" type="line"/>
    </contour>
    <contour>
      <point x="565.0" y="939.0" type="line"/>
      <point x="605.0" y="1403.0" type="line" smooth="yes"/>
      <point x="612" y="1480"/>
      <point x="654" y="1562"/>
      <point x="693.0" y="1562.0" type="qcurve" smooth="yes"/>
      <point x="735.0" y="1562.0"/>
      <point x="750" y="1461"/>
      <point x="735.0" y="1403.0" type="qcurve" smooth="yes"/>
      <point x="609.0" y="934.0" type="line"/>
    </contour>
  </outline>
</glyph>
<glyph name="numbersign" format="2">
  <advance width="1328"/>
  <unicode hex="0023"/>
  <outline>
    <contour>
      <point x="45.0" y="459.0" type="line"/>
      <point x="70.0" y="548.0" type="line"/>
      <point x="1170.0" y="548.0" type="line"/>
      <point x="1145.0" y="459.0" type="line"/>
    </contour>
    <contour>
      <point x="184.0" y="924.0" type="line"/>
      <point x="209.0" y="1012.0" type="line"/>
      <point x="1309.0" y="1012.0" type="line"/>
      <point x="1284.0" y="924.0" type="line"/>
    </contour>
    <contour>
      <point x="149.0" y="-24.0" type="line"/>
      <point x="727.0" y="1539.0" type="line"/>
      <point x="808.0" y="1514.0" type="line"/>
      <point x="230.0" y="-49.0" type="line"/>
    </contour>
    <contour>
      <point x="559.0" y="-24.0" type="line"/>
      <point x="1137.0" y="1539.0" type="line"/>
      <point x="1217.0" y="1514.0" type="line"/>
      <point x="639.0" y="-49.0" type="line"/>
    </contour>
  </outline>
</glyph>
<glyph name="dollar" format="2">
  <advance width="969"/>
  <unicode hex="0024"/>
  <outline>
    <contour>
      <point x="-75.0" y="220.0" type="qcurve"/>
      <point x="-10.0" y="315.0" type="line"/>
      <point x="64.0" y="233.0"/>
      <point x="276" y="113"/>
      <point x="432.0" y="113.0" type="qcurve" smooth="yes"/>
      <point x="583.0" y="113.0"/>
      <point x="749.0" y="261.0"/>
      <point x="749.0" y="377" type="qcurve" smooth="yes"/>
      <point x="749.0" y="488.0"/>
      <point x="618" y="648"/>
      <point x="480.0" y="736.0" type="qcurve" smooth="yes"/>
      <point x="321.0" y="838.0"/>
      <point x="169.0" y="1018.0"/>
      <point x="169.0" y="1155.0" type="qcurve" smooth="yes"/>
      <point x="169.0" y="1306.0"/>
      <point x="391.0" y="1498.0"/>
      <point x="600.0" y="1498.0" type="qcurve" smooth="yes"/>
      <point x="722.0" y="1498.0"/>
      <point x="922.0" y="1413.0"/>
      <point x="1008.0" y="1341.0" type="qcurve"/>
      <point x="952.0" y="1248.0" type="line"/>
      <point x="879.0" y="1313.0"/>
      <point x="668.0" y="1399.0"/>
      <point x="572.0" y="1399.0" type="qcurve" smooth="yes"/>
      <point x="403.0" y="1399.0"/>
      <point x="272.0" y="1270.0"/>
      <point x="272.0" y="1174.0" type="qcurve" smooth="yes"/>
      <point x="272.0" y="1059.0"/>
      <point x="392" y="938"/>
      <point x="533.0" y="838.0" type="qcurve" smooth="yes"/>
      <point x="692.0" y="726.0"/>
      <point x="869" y="524"/>
      <point x="869.0" y="385" type="qcurve" smooth="yes"/>
      <point x="869.0" y="244"/>
      <point x="609.0" y="8.0"/>
      <point x="417.0" y="8.0" type="qcurve" smooth="yes"/>
      <point x="261.0" y="8.0"/>
      <point x="-4.0" y="137.0"/>
    </contour>
    <contour>
      <point x="298.0" y="-130.0" type="line"/>
      <point x="340.0" y="72.0" type="line"/>
      <point x="340.0" y="72.0" type="line"/>
      <point x="491.0" y="815.0" type="line"/>
      <point x="555.0" y="775.0" type="line"/>
      <point x="406.0" y="72.0" type="line"/>
      <point x="406.0" y="72.0" type="line"/>
      <point x="364.0" y="-138.0" type="line"/>
    </contour>
    <contour>
      <point x="645.0" y="1621.0" type="line"/>
      <point x="722.0" y="1618.0" type="line"/>
      <point x="685.0" y="1430.0" type="line"/>
      <point x="684.0" y="1430.0" type="line"/>
      <point x="555.0" y="775.0" type="line"/>
      <point x="491.0" y="815.0" type="line"/>
      <point x="613.0" y="1430.0" type="line"/>
      <point x="613.0" y="1430.0" type="line"/>
    </contour>
  </outline>
</glyph>
<glyph name="percent" format="2">
  <advance width="1879"/>
  <unicode hex="0025"/>
  <outline>
    <contour>
      <point x="128.0" y="1061.0" type="qcurve" smooth="yes"/>
      <point x="162.0" y="1253.0"/>
      <point x="404.0" y="1520.0"/>
      <point x="569.0" y="1519.0" type="qcurve" smooth="yes"/>
      <point x="734.0" y="1517.0"/>
      <point x="873.0" y="1266.0"/>
      <point x="839.0" y="1062.0" type="qcurve" smooth="yes"/>
      <point x="809.0" y="865.0"/>
      <point x="571.0" y="598.0"/>
      <point x="407.0" y="599.0" type="qcurve" smooth="yes"/>
      <point x="242.0" y="600.0"/>
      <point x="91.0" y="855.0"/>
    </contour>
    <contour>
      <point x="242.0" y="1059.0" type="qcurve" smooth="yes"/>
      <point x="210.0" y="875.0"/>
      <point x="303.0" y="689.0"/>
      <point x="416.0" y="689.0" type="qcurve" smooth="yes"/>
      <point x="529.0" y="688.0"/>
      <point x="695.0" y="879.0"/>
      <point x="727.0" y="1062.0" type="qcurve" smooth="yes"/>
      <point x="755.0" y="1229.0"/>
      <point x="671.0" y="1425.0"/>
      <point x="553.0" y="1426.0" type="qcurve" smooth="yes"/>
      <point x="441.0" y="1427.0"/>
      <point x="275.0" y="1232.0"/>
    </contour>
    <contour>
      <point x="366.0" y="29.0" type="line"/>
      <point x="1455.0" y="1523.0" type="line"/>
      <point x="1523.0" y="1469.0" type="line"/>
      <point x="434.0" y="-25.0" type="line"/>
    </contour>
    <contour>
      <point x="1049.0" y="436.0" type="qcurve" smooth="yes"/>
      <point x="1083.0" y="628.0"/>
      <point x="1325.0" y="895.0"/>
      <point x="1490.0" y="894.0" type="qcurve" smooth="yes"/>
      <point x="1655.0" y="892.0"/>
      <point x="1794.0" y="641.0"/>
      <point x="1760.0" y="437.0" type="qcurve" smooth="yes"/>
      <point x="1730.0" y="240.0"/>
      <point x="1492.0" y="-27.0"/>
      <point x="1328.0" y="-26.0" type="qcurve" smooth="yes"/>
      <point x="1163.0" y="-25.0"/>
      <point x="1012.0" y="230.0"/>
    </contour>
    <contour>
      <point x="1163.0" y="434.0" type="qcurve" smooth="yes"/>
      <point x="1131.0" y="250.0"/>
      <point x="1224.0" y="64.0"/>
      <point x="1337.0" y="64.0" type="qcurve" smooth="yes"/>
      <point x="1450.0" y="63.0"/>
      <point x="1616.0" y="254.0"/>
      <point x="1648.0" y="437.0" type="qcurve" smooth="yes"/>
      <point x="1676.0" y="604.0"/>
      <point x="1592.0" y="800.0"/>
      <point x="1474.0" y="801.0" type="qcurve" smooth="yes"/>
      <point x="1362.0" y="802.0"/>
      <point x="1196.0" y="607.0"/>
    </contour>
  </outline>
</glyph>
<glyph name="ampersand" format="2">
  <advance width="1460"/>
  <unicode hex="0026"/>
  <outline>
    <contour>
      <point x="982" y="-25" type="line"/>
      <point x="886" y="135" type="line"/>
      <point x="794" y="60"/>
      <point x="579" y="-33"/>
      <point x="396" y="-33" type="qcurve" smooth="yes"/>
      <point x="184" y="-33"/>
      <point x="-40" y="207"/>
      <point x="-7" y="404" type="qcurve" smooth="yes"/>
      <point x="21" y="576"/>
      <point x="349" y="779"/>
      <point x="576" y="804" type="qcurve"/>
      <point x="448" y="850"/>
      <point x="273" y="1085"/>
      <point x="310" y="1241" type="qcurve" smooth="yes"/>
      <point x="349" y="1406"/>
      <point x="609" y="1541"/>
      <point x="779" y="1541" type="qcurve" smooth="yes"/>
      <point x="889" y="1541"/>
      <point x="1041" y="1489"/>
      <point x="1063" y="1489" type="qcurve" smooth="yes"/>
      <point x="1080" y="1489"/>
      <point x="1102" y="1512"/>
      <point x="1111" y="1526" type="qcurve"/>
      <point x="1184" y="1526" type="line"/>
      <point x="1095" y="1129" type="line"/>
      <point x="1002" y="1129" type="line"/>
      <point x="1022" y="1366" type="line"/>
      <point x="985" y="1395"/>
      <point x="868" y="1437"/>
      <point x="773" y="1437" type="qcurve" smooth="yes"/>
      <point x="625" y="1437"/>
      <point x="450" y="1327"/>
      <point x="428" y="1216" type="qcurve" smooth="yes"/>
      <point x="394" y="1050"/>
      <point x="663" y="808"/>
      <point x="916" y="800" type="qcurve" smooth="yes"/>
      <point x="1175" y="792"/>
      <point x="1345" y="834"/>
      <point x="1420" y="902" type="qcurve"/>
      <point x="1467" y="870" type="line"/>
      <point x="1445" y="798"/>
      <point x="1317" y="693"/>
      <point x="1216" y="693" type="qcurve" smooth="yes"/>
      <point x="1124" y="693"/>
      <point x="818" y="726"/>
      <point x="713" y="726" type="qcurve" smooth="yes"/>
      <point x="463" y="726"/>
      <point x="149" y="544"/>
      <point x="120" y="389" type="qcurve" smooth="yes"/>
      <point x="91" y="232"/>
      <point x="278" y="59"/>
      <point x="439" y="59" type="qcurve" smooth="yes"/>
      <point x="616" y="59"/>
      <point x="892" y="228"/>
      <point x="959" y="411" type="qcurve" smooth="yes"/>
      <point x="1076" y="758" type="line"/>
      <point x="1187" y="733" type="line"/>
      <point x="1033" y="336"/>
      <point x="992" y="138"/>
      <point x="1064" y="5" type="qcurve"/>
    </contour>
  </outline>
</glyph>
<glyph name="quotesingle" format="2">
  <advance width="543"/>
  <unicode hex="0027"/>
  <outline>
    <contour>
      <point x="293.0" y="939.0" type="line"/>
      <point x="331.0" y="1403.0" type="line" smooth="yes"/>
      <point x="338" y="1487"/>
      <point x="384" y="1562"/>
      <point x="423.0" y="1562.0" type="qcurve" smooth="yes"/>
      <point x="468.0" y="1562.0"/>
      <point x="484" y="1456"/>
      <point x="469.0" y="1403.0" type="qcurve" smooth="yes"/>
      <point x="341.0" y="934.0" type="line"/>
    </contour>
  </outline>
</glyph>
<glyph name="parenright" format="2">
  <advance width="648"/>
  <unicode hex="0029"/>
  <outline>
    <contour>
      <point x="563.0" y="503.0" type="qcurve" smooth="yes"/>
      <point x="524.0" y="215.0"/>
      <point x="184.0" y="-343.0"/>
      <point x="12.0" y="-477.0" type="qcurve"/>
      <point x="-52.0" y="-407.0" type="line"/>
      <point x="100.0" y="-275.0"/>
      <point x="404.0" y="221.0"/>
      <point x="443.0" y="503.0" type="qcurve" smooth="yes"/>
      <point x="483.0" y="799.0"/>
      <point x="307.0" y="1283.0"/>
      <point x="150.0" y="1457.0" type="qcurve"/>
      <point x="219.0" y="1520.0" type="line"/>
      <point x="405.0" y="1332.0"/>
      <point x="604.0" y="819.0"/>
    </contour>
  </outline>
</glyph>
<glyph name="asterisk" format="2">
  <advance width="1065"/>
  <unicode hex="002A"/>
  <outline>
    <contour>
      <point x="458.0" y="666.0" type="qcurve" smooth="yes"/>
      <point x="405.0" y="682.0"/>
      <point x="438.0" y="820.0"/>
      <point x="464.0" y="872.0" type="qcurve" smooth="yes"/>
      <point x="560.0" y="1076.0" type="line"/>
      <point x="558.0" y="1078.0" type="line"/>
      <point x="344.0" y="989.0" type="line" smooth="yes"/>
      <point x="302.0" y="972.0"/>
      <point x="154.0" y="932.0"/>
      <point x="139.0" y="992.0" type="qcurve" smooth="yes"/>
      <point x="124.0" y="1049.0"/>
      <point x="263.0" y="1088.0"/>
      <point x="323.0" y="1092.0" type="qcurve" smooth="yes"/>
      <point x="546.0" y="1109.0" type="line"/>
      <point x="546.0" y="1114.0" type="line"/>
      <point x="345.0" y="1268.0" type="line" smooth="yes"/>
      <point x="302.0" y="1301.0"/>
      <point x="229.0" y="1396.0"/>
      <point x="268.0" y="1434.0" type="qcurve" smooth="yes"/>
      <point x="307.0" y="1471.0"/>
      <point x="396.0" y="1390.0"/>
      <point x="430.0" y="1342.0" type="qcurve" smooth="yes"/>
      <point x="572.0" y="1140.0" type="line"/>
      <point x="578.0" y="1140.0" type="line"/>
      <point x="610.0" y="1389.0" type="line" smooth="yes"/>
      <point x="620.0" y="1451.0"/>
      <point x="661.0" y="1549.0"/>
      <point x="710.0" y="1542.0" type="qcurve" smooth="yes"/>
      <point x="759.0" y="1532.0"/>
      <point x="741.0" y="1423.0"/>
      <point x="715.0" y="1364.0" type="qcurve" smooth="yes"/>
      <point x="609.0" y="1131.0" type="line"/>
      <point x="611.0" y="1127.0" type="line"/>
      <point x="844.0" y="1225.0" type="line" smooth="yes"/>
      <point x="871.0" y="1238.0"/>
      <point x="1008.0" y="1276.0"/>
      <point x="1024.0" y="1215.0" type="qcurve" smooth="yes"/>
      <point x="1038.0" y="1158.0"/>
      <point x="887.0" y="1123.0"/>
      <point x="867.0" y="1122.0" type="qcurve" smooth="yes"/>
      <point x="619.0" y="1096.0" type="line"/>
      <point x="619.0" y="1091.0" type="line"/>
      <point x="787.0" y="964.0" type="line" smooth="yes"/>
      <point x="840.0" y="925.0"/>
      <point x="946.0" y="813.0"/>
      <point x="901.0" y="772.0" type="qcurve" smooth="yes"/>
      <point x="857.0" y="730.0"/>
      <point x="747.0" y="841.0"/>
      <point x="714.0" y="893.0" type="qcurve" smooth="yes"/>
      <point x="593.0" y="1068.0" type="line"/>
      <point x="590.0" y="1068.0" type="line"/>
      <point x="568.0" y="847.0" type="line" smooth="yes"/>
      <point x="563.0" y="786.0"/>
      <point x="517.0" y="649.0"/>
    </contour>
  </outline>
</glyph>
<glyph name="period" format="2">
  <advance width="515"/>
  <unicode hex="002E"/>
  <outline>
    <contour>
      <point x="103.0" y="83.0" type="qcurve" smooth="yes"/>
      <point x="103.0" y="123.0"/>
      <point x="162.0" y="185.0"/>
      <point x="209.0" y="185.0" type="qcurve" smooth="yes"/>
      <point x="256.0" y="185.0"/>
      <point x="316.0" y="123.0"/>
      <point x="316.0" y="83.0" type="qcurve" smooth="yes"/>
      <point x="316.0" y="41.0"/>
      <point x="256.0" y="-21.0"/>
      <point x="209.0" y="-21.0" type="qcurve" smooth="yes"/>
      <point x="162.0" y="-21.0"/>
      <point x="103.0" y="41.0"/>
    </contour>
  </outline>
</glyph>
<glyph name="slash" format="2">
  <advance width="537"/>
  <unicode hex="002F"/>
  <outline>
    <contour>
      <point x="-76.0" y="-123.0" type="line"/>
      <point x="540.0" y="1550.0" type="line"/>
      <point x="629.0" y="1530.0" type="line"/>
      <point x="13.0" y="-143.0" type="line"/>
    </contour>
  </outline>
</glyph>
<glyph name="zero" format="2">
  <advance width="1099"/>
  <unicode hex="0030"/>
  <outline>
    <contour>
      <point x="85" y="776" type="qcurve" smooth="yes"/>
      <point x="154" y="1109"/>
      <point x="480" y="1525"/>
      <point x="713" y="1517" type="qcurve" smooth="yes"/>
      <point x="939" y="1509"/>
      <point x="1096" y="1106"/>
      <point x="1024" y="748" type="qcurve" smooth="yes"/>
      <point x="960" y="438"/>
      <point x="638" y="-40"/>
      <point x="386" y="-35" type="qcurve" smooth="yes"/>
      <point x="156" y="-30"/>
      <point x="11" y="415"/>
    </contour>
    <contour>
      <point x="209" y="770" type="qcurve" smooth="yes"/>
      <point x="138" y="441"/>
      <point x="221" y="79"/>
      <point x="401" y="74" type="qcurve" smooth="yes"/>
      <point x="589" y="69"/>
      <point x="834" y="452"/>
      <point x="902" y="762" type="qcurve" smooth="yes"/>
      <point x="968" y="1074"/>
      <point x="876" y="1395"/>
      <point x="695" y="1401" type="qcurve" smooth="yes"/>
      <point x="504" y="1408"/>
      <point x="271" y="1058"/>
    </contour>
  </outline>
</glyph>
<glyph name="one" format="2">
  <advance width="755"/>
  <unicode hex="0031"/>
  <outline>
    <contour>
      <point x="226.0" y="7.0" type="line"/>
      <point x="248.0" y="69.0"/>
      <point x="279.0" y="170.0"/>
      <point x="301.0" y="277.0" type="qcurve" smooth="yes"/>
      <point x="456.0" y="1054.0" type="line"/>
      <point x="510.0" y="1367.0" type="line"/>
      <point x="102.0" y="1150.0" type="line"/>
      <point x="72.0" y="1244.0" type="line"/>
      <point x="635.0" y="1545.0" type="line"/>
      <point x="654.0" y="1529.0" type="line"/>
      <point x="639.0" y="1479.0"/>
      <point x="619.0" y="1347.0"/>
      <point x="610.0" y="1295.0" type="qcurve" smooth="yes"/>
      <point x="501.0" y="720.0" type="line"/>
      <point x="401.0" y="89.0" type="line"/>
      <point x="282.0" y="-25.0" type="line"/>
    </contour>
  </outline>
</glyph>
<glyph name="two" format="2">
  <advance width="900"/>
  <unicode hex="0032"/>
  <outline>
    <contour>
      <point x="-96" y="8" type="qcurve"/>
      <point x="-131" y="66" type="line"/>
      <point x="-27" y="165" type="line" smooth="yes"/>
      <point x="374" y="545"/>
      <point x="747" y="957"/>
      <point x="756" y="1135" type="qcurve" smooth="yes"/>
      <point x="760" y="1255"/>
      <point x="618" y="1408"/>
      <point x="496" y="1409" type="qcurve" smooth="yes"/>
      <point x="364" y="1409"/>
      <point x="194" y="1305"/>
      <point x="128" y="1205" type="qcurve"/>
      <point x="63" y="1267" type="line"/>
      <point x="145" y="1398"/>
      <point x="346" y="1520"/>
      <point x="508" y="1520" type="qcurve" smooth="yes"/>
      <point x="666" y="1519"/>
      <point x="875" y="1309"/>
      <point x="872" y="1150" type="qcurve" smooth="yes"/>
      <point x="868" y="908"/>
      <point x="244" y="306"/>
      <point x="44" y="151" type="qcurve"/>
      <point x="48" y="142" type="line"/>
      <point x="84" y="163"/>
      <point x="161" y="185"/>
      <point x="200" y="184" type="qcurve" smooth="yes"/>
      <point x="322" y="184"/>
      <point x="501" y="149"/>
      <point x="606" y="134" type="qcurve"/>
      <point x="733" y="292" type="line"/>
      <point x="798" y="290" type="line"/>
      <point x="679" y="-21" type="line"/>
      <point x="577" y="12"/>
      <point x="268" y="67"/>
      <point x="145" y="67" type="qcurve" smooth="yes"/>
      <point x="71" y="67"/>
      <point x="-39" y="36"/>
    </contour>
  </outline>
</glyph>
<glyph name="three" format="2">
  <advance width="919"/>
  <unicode hex="0033"/>
  <outline>
    <contour>
      <point x="-98" y="234" type="qcurve" smooth="yes"/>
      <point x="-93" y="310"/>
      <point x="-38" y="386"/>
      <point x="-15" y="402" type="qcurve"/>
      <point x="37" y="392" type="line"/>
      <point x="21" y="373"/>
      <point x="5" y="302"/>
      <point x="3" y="264" type="qcurve" smooth="yes"/>
      <point x="-2" y="183"/>
      <point x="154" y="69"/>
      <point x="284" y="69" type="qcurve" smooth="yes"/>
      <point x="437" y="69"/>
      <point x="683" y="259"/>
      <point x="692" y="427" type="qcurve" smooth="yes"/>
      <point x="703" y="612"/>
      <point x="483" y="778"/>
      <point x="288" y="773" type="qcurve" smooth="yes"/>
      <point x="211" y="771" type="line"/>
      <point x="196" y="866" type="line"/>
      <point x="323" y="875" type="line" smooth="yes"/>
      <point x="510" y="890"/>
      <point x="760" y="1071"/>
      <point x="767" y="1188" type="qcurve" smooth="yes"/>
      <point x="773" y="1303"/>
      <point x="643" y="1410"/>
      <point x="547" y="1411" type="qcurve" smooth="yes"/>
      <point x="421" y="1411"/>
      <point x="250" y="1312"/>
      <point x="191" y="1244" type="qcurve"/>
      <point x="125" y="1299" type="line"/>
      <point x="203" y="1396"/>
      <point x="412" y="1519"/>
      <point x="549" y="1519" type="qcurve" smooth="yes"/>
      <point x="724" y="1518"/>
      <point x="902" y="1360"/>
      <point x="894" y="1211" type="qcurve" smooth="yes"/>
      <point x="885" y="1058"/>
      <point x="630" y="866"/>
      <point x="479" y="836" type="qcurve"/>
      <point x="477" y="829" type="line"/>
      <point x="648" y="797"/>
      <point x="824" y="592"/>
      <point x="814" y="414" type="qcurve" smooth="yes"/>
      <point x="804" y="241"/>
      <point x="512" y="-36"/>
      <point x="279" y="-35" type="qcurve" smooth="yes"/>
      <point x="114" y="-35"/>
      <point x="-105" y="107"/>
    </contour>
  </outline>
</glyph>
<glyph name="four" format="2">
  <advance width="1124"/>
  <unicode hex="0034"/>
  <outline>
    <contour>
      <point x="7.0" y="473.0" type="line"/>
      <point x="7.0" y="540.0" type="line"/>
      <point x="927.0" y="1536.0" type="line"/>
      <point x="982.0" y="1527.0" type="line"/>
      <point x="1012.0" y="1487.0" type="line"/>
      <point x="830.0" y="537.0" type="line"/>
      <point x="824.0" y="506.0" type="line"/>
      <point x="767.0" y="171.0" type="line"/>
      <point x="775.0" y="64.0" type="line"/>
      <point x="654.0" y="-22.0" type="line"/>
      <point x="607.0" y="11.0" type="line"/>
      <point x="715.0" y="504.0" type="line"/>
      <point x="722.0" y="536.0" type="line"/>
      <point x="873.0" y="1362.0" type="line"/>
      <point x="151.0" y="579.0" type="line"/>
      <point x="155.0" y="569.0" type="line"/>
      <point x="787.0" y="571.0" type="line"/>
      <point x="1040.0" y="575.0" type="line"/>
      <point x="1030.0" y="484.0" type="line"/>
      <point x="766.0" y="479.0" type="line"/>
    </contour>
  </outline>
</glyph>
<glyph name="five" format="2">
  <advance width="963"/>
  <unicode hex="0035"/>
  <outline>
    <contour>
      <point x="-35" y="228" type="qcurve" smooth="yes"/>
      <point x="-35" y="275"/>
      <point x="-2" y="344"/>
      <point x="38" y="368" type="qcurve"/>
      <point x="72" y="372" type="line"/>
      <point x="69" y="308" type="line" smooth="yes"/>
      <point x="64" y="200"/>
      <point x="203" y="71"/>
      <point x="338" y="71" type="qcurve" smooth="yes"/>
      <point x="520" y="71"/>
      <point x="764" y="356"/>
      <point x="764" y="574" type="qcurve" smooth="yes"/>
      <point x="764" y="772"/>
      <point x="486" y="909"/>
      <point x="262" y="834" type="qcurve" smooth="yes"/>
      <point x="164" y="800" type="line"/>
      <point x="129" y="857" type="line"/>
      <point x="292" y="1433" type="line"/>
      <point x="376" y="1500" type="line"/>
      <point x="943" y="1500" type="line"/>
      <point x="910" y="1382" type="line"/>
      <point x="376" y="1382" type="line"/>
      <point x="364" y="1374" type="line"/>
      <point x="311" y="1184"/>
      <point x="245" y="944"/>
      <point x="232" y="906" type="qcurve"/>
      <point x="445" y="969" type="line"/>
      <point x="656" y="1000"/>
      <point x="892" y="792"/>
      <point x="889" y="597" type="qcurve" smooth="yes"/>
      <point x="885" y="343"/>
      <point x="580" y="-33"/>
      <point x="315" y="-33" type="qcurve" smooth="yes"/>
      <point x="149" y="-33"/>
      <point x="-35" y="123"/>
    </contour>
  </outline>
</glyph>
<glyph name="six" format="2">
  <advance width="1095"/>
  <unicode hex="0036"/>
  <outline>
    <contour>
      <point x="25.0" y="464.0" type="qcurve" smooth="yes"/>
      <point x="25.0" y="839"/>
      <point x="620.0" y="1508.0"/>
      <point x="1020.0" y="1559.0" type="qcurve"/>
      <point x="1038.0" y="1492.0" type="line"/>
      <point x="645.0" y="1411.0"/>
      <point x="159.0" y="785.0"/>
      <point x="141.0" y="440.0" type="qcurve" smooth="yes"/>
      <point x="133.0" y="259.0"/>
      <point x="285" y="69"/>
      <point x="407" y="69.0" type="qcurve" smooth="yes"/>
      <point x="570" y="69.0"/>
      <point x="797" y="335"/>
      <point x="815.0" y="497.0" type="qcurve" smooth="yes"/>
      <point x="831" y="645"/>
      <point x="722.0" y="796.0"/>
      <point x="604.0" y="796.0" type="qcurve" smooth="yes"/>
      <point x="539.0" y="796.0"/>
      <point x="435.0" y="747.0"/>
      <point x="398.0" y="718.0" type="qcurve"/>
      <point x="374.0" y="783.0" type="line"/>
      <point x="412.0" y="821.0"/>
      <point x="549.0" y="895.0"/>
      <point x="636.0" y="896.0" type="qcurve" smooth="yes"/>
      <point x="787.0" y="898.0"/>
      <point x="955" y="678"/>
      <point x="941.0" y="509.0" type="qcurve" smooth="yes"/>
      <point x="924.0" y="299.0"/>
      <point x="608" y="-36.0"/>
      <point x="425.0" y="-36.0" type="qcurve" smooth="yes"/>
      <point x="236" y="-36"/>
      <point x="25" y="202"/>
    </contour>
  </outline>
</glyph>
<glyph name="seven" format="2">
  <advance width="887"/>
  <unicode hex="0037"/>
  <outline>
    <contour>
      <point x="59" y="1249" type="line"/>
      <point x="128" y="1500" type="line"/>
      <point x="979" y="1500" type="line"/>
      <point x="1005" y="1417" type="line"/>
      <point x="706" y="1070"/>
      <point x="350" y="372"/>
      <point x="301" y="66" type="qcurve"/>
      <point x="174" y="-28" type="line"/>
      <point x="128" y="14" type="line"/>
      <point x="263" y="451"/>
      <point x="602" y="1057"/>
      <point x="864" y="1378" type="qcurve"/>
      <point x="852" y="1392" type="line"/>
      <point x="196" y="1394" type="line"/>
      <point x="136" y="1249" type="line"/>
    </contour>
  </outline>
</glyph>
<glyph name="eight" format="2">
  <advance width="1033"/>
  <unicode hex="0038"/>
  <outline>
    <contour>
      <point x="-43" y="338" type="qcurve" smooth="yes"/>
      <point x="-43" y="506"/>
      <point x="222" y="768"/>
      <point x="477" y="857" type="qcurve"/>
      <point x="540" y="802" type="line"/>
      <point x="322" y="718"/>
      <point x="89" y="513"/>
      <point x="89" y="354" type="qcurve" smooth="yes"/>
      <point x="89" y="234"/>
      <point x="258" y="72"/>
      <point x="413" y="72" type="qcurve" smooth="yes"/>
      <point x="582" y="72"/>
      <point x="812" y="255"/>
      <point x="812.0" y="393" type="qcurve" smooth="yes"/>
      <point x="812" y="522"/>
      <point x="660" y="677"/>
      <point x="516" y="775" type="qcurve" smooth="yes"/>
      <point x="352" y="887"/>
      <point x="219" y="1042"/>
      <point x="219" y="1172" type="qcurve" smooth="yes"/>
      <point x="219" y="1315"/>
      <point x="442" y="1521"/>
      <point x="632" y="1521" type="qcurve" smooth="yes"/>
      <point x="808" y="1521"/>
      <point x="1001" y="1372"/>
      <point x="1001" y="1237" type="qcurve" smooth="yes"/>
      <point x="1001" y="1084"/>
      <point x="771" y="890"/>
      <point x="590" y="816" type="qcurve"/>
      <point x="530" y="878" type="line"/>
      <point x="708" y="952"/>
      <point x="884" y="1121"/>
      <point x="887" y="1213" type="qcurve" smooth="yes"/>
      <point x="890" y="1307"/>
      <point x="774" y="1406"/>
      <point x="636" y="1406" type="qcurve" smooth="yes"/>
      <point x="503" y="1406"/>
      <point x="329" y="1290"/>
      <point x="329" y="1184" type="qcurve" smooth="yes"/>
      <point x="329" y="1075"/>
      <point x="506" y="919"/>
      <point x="655" y="813" type="qcurve" smooth="yes"/>
      <point x="810" y="702"/>
      <point x="930" y="533"/>
      <point x="930.0" y="389" type="qcurve" smooth="yes"/>
      <point x="930" y="211"/>
      <point x="612" y="-31"/>
      <point x="389" y="-31" type="qcurve" smooth="yes"/>
      <point x="183" y="-31"/>
      <point x="-43" y="185"/>
    </contour>
  </outline>
</glyph>
<glyph name="nine" format="2">
  <advance width="1095"/>
  <unicode hex="0039"/>
  <outline>
    <contour>
      <point x="27.0" y="-78.0" type="qcurve"/>
      <point x="9.0" y="-11.0" type="line"/>
      <point x="402.0" y="70.0"/>
      <point x="888.0" y="696.0"/>
      <point x="906.0" y="1041.0" type="qcurve" smooth="yes"/>
      <point x="914.0" y="1222.0"/>
      <point x="762.0" y="1412.0"/>
      <point x="640.0" y="1412.0" type="qcurve" smooth="yes"/>
      <point x="477.0" y="1412.0"/>
      <point x="250.0" y="1146.0"/>
      <point x="232.0" y="984.0" type="qcurve" smooth="yes"/>
      <point x="216.0" y="836.0"/>
      <point x="325.0" y="685.0"/>
      <point x="443.0" y="685.0" type="qcurve" smooth="yes"/>
      <point x="508.0" y="685.0"/>
      <point x="612.0" y="734.0"/>
      <point x="649.0" y="763.0" type="qcurve"/>
      <point x="673.0" y="698.0" type="line"/>
      <point x="635.0" y="660.0"/>
      <point x="498.0" y="586.0"/>
      <point x="411.0" y="585.0" type="qcurve" smooth="yes"/>
      <point x="260.0" y="583.0"/>
      <point x="92.0" y="803.0"/>
      <point x="106.0" y="972.0" type="qcurve" smooth="yes"/>
      <point x="123.0" y="1182.0"/>
      <point x="439.0" y="1517.0"/>
      <point x="622.0" y="1517.0" type="qcurve" smooth="yes"/>
      <point x="811.0" y="1517.0"/>
      <point x="1022.0" y="1279.0"/>
      <point x="1022.0" y="1017.0" type="qcurve" smooth="yes"/>
      <point x="1022.0" y="642.0"/>
      <point x="427.0" y="-27.0"/>
    </contour>
  </outline>
</glyph>
<glyph name="less" format="2">
  <advance width="694"/>
  <unicode hex="003C"/>
  <outline>
    <contour>
      <point x="38" y="661" type="qcurve"/>
      <point x="-23" y="624"/>
      <point x="497" y="1029"/>
      <point x="573" y="1088" type="qcurve" smooth="yes"/>
      <point x="642" y="1142"/>
      <point x="688" y="1071"/>
      <point x="624" y="1015" type="qcurve" smooth="yes"/>
      <point x="534" y="946"/>
      <point x="221" y="708"/>
      <point x="192" y="655" type="qcurve"/>
      <point x="225" y="582"/>
      <point x="452" y="319"/>
      <point x="502" y="265" type="qcurve"/>
      <point x="548" y="209"/>
      <point x="513" y="157"/>
      <point x="461" y="214" type="qcurve" smooth="yes"/>
      <point x="408" y="270"/>
      <point x="13" y="687"/>
    </contour>
  </outline>
</glyph>
<glyph name="question" format="2">
  <advance width="1034"/>
  <unicode hex="003F"/>
  <outline>
    <contour>
      <point x="182.0" y="1301.0" type="qcurve" smooth="yes"/>
      <point x="201.0" y="1393.0"/>
      <point x="441.0" y="1524.0"/>
      <point x="627.0" y="1524.0" type="qcurve" smooth="yes"/>
      <point x="800.0" y="1524.0"/>
      <point x="1010.0" y="1339.0"/>
      <point x="1010.0" y="1214.0" type="qcurve" smooth="yes"/>
      <point x="1010.0" y="1070.0"/>
      <point x="813.0" y="856.0"/>
      <point x="623.0" y="751.0" type="qcurve" smooth="yes"/>
      <point x="509.0" y="688.0"/>
      <point x="376" y="593"/>
      <point x="367.0" y="532.0" type="qcurve" smooth="yes"/>
      <point x="359.0" y="477.0" type="line"/>
      <point x="269.0" y="477.0" type="line"/>
      <point x="271.0" y="539.0" type="line" smooth="yes"/>
      <point x="273" y="613"/>
      <point x="447" y="762"/>
      <point x="567.0" y="834.0" type="qcurve" smooth="yes"/>
      <point x="723" y="927"/>
      <point x="882.0" y="1095.0"/>
      <point x="882.0" y="1203.0" type="qcurve" smooth="yes"/>
      <point x="882.0" y="1297.0"/>
      <point x="742.0" y="1425.0"/>
      <point x="616.0" y="1425.0" type="qcurve" smooth="yes"/>
      <point x="477.0" y="1425.0"/>
      <point x="315.0" y="1371.0"/>
      <point x="306.0" y="1309.0" type="qcurve" smooth="yes"/>
      <point x="303.0" y="1285.0"/>
      <point x="362.0" y="1240.0"/>
      <point x="360.0" y="1199.0" type="qcurve" smooth="yes"/>
      <point x="358.0" y="1166.0"/>
      <point x="320.0" y="1114.0"/>
      <point x="271.0" y="1114.0" type="qcurve" smooth="yes"/>
      <point x="228.0" y="1114.0"/>
      <point x="163.0" y="1203.0"/>
    </contour>
    <contour>
      <point x="192.0" y="80.0" type="qcurve" smooth="yes"/>
      <point x="192.0" y="120.0"/>
      <point x="251.0" y="183.0"/>
      <point x="298.0" y="183.0" type="qcurve" smooth="yes"/>
      <point x="346.0" y="183.0"/>
      <point x="406.0" y="120.0"/>
      <point x="406.0" y="80.0" type="qcurve" smooth="yes"/>
      <point x="406.0" y="38.0"/>
      <point x="346.0" y="-24.0"/>
      <point x="298.0" y="-24.0" type="qcurve" smooth="yes"/>
      <point x="251.0" y="-24.0"/>
      <point x="192.0" y="38.0"/>
    </contour>
  </outline>
</glyph>
<glyph name="at" format="2">
  <advance width="1660"/>
  <unicode hex="0040"/>
  <outline>
    <contour>
      <point x="410" y="571.0" type="qcurve" smooth="yes"/>
      <point x="410" y="788.0"/>
      <point x="744" y="1184.0"/>
      <point x="979" y="1184.0" type="qcurve" smooth="yes"/>
      <point x="1004" y="1184.0"/>
      <point x="1083" y="1172.0"/>
      <point x="1100" y="1162.0" type="qcurve"/>
      <point x="1164" y="1215.0" type="line"/>
      <point x="1206" y="1215.0" type="line"/>
      <point x="1215" y="1107.0" type="line"/>
      <point x="1093" y="585.0" type="line"/>
      <point x="1075" y="506.0" type="line"/>
      <point x="1080" y="451.0"/>
      <point x="1143" y="414.0"/>
      <point x="1175" y="414.0" type="qcurve" smooth="yes"/>
      <point x="1301" y="414.0"/>
      <point x="1493" y="628.0"/>
      <point x="1515" y="804.0" type="qcurve" smooth="yes"/>
      <point x="1557" y="1115.0"/>
      <point x="1215" y="1440.0"/>
      <point x="928" y="1440.0" type="qcurve" smooth="yes"/>
      <point x="647" y="1440.0"/>
      <point x="200" y="1021.0"/>
      <point x="158" y="708.0" type="qcurve" smooth="yes"/>
      <point x="116" y="401.0"/>
      <point x="399" y="9.0"/>
      <point x="691" y="9.0" type="qcurve" smooth="yes"/>
      <point x="827" y="9.0"/>
      <point x="1036" y="59.0"/>
      <point x="1111" y="110.0" type="qcurve"/>
      <point x="1143" y="23.0" type="line"/>
      <point x="1063" y="-25.0"/>
      <point x="833" y="-79.0"/>
      <point x="683" y="-79.0" type="qcurve" smooth="yes"/>
      <point x="354" y="-79.0"/>
      <point x="13" y="381.0"/>
      <point x="63" y="719.0" type="qcurve" smooth="yes"/>
      <point x="117" y="1083.0"/>
      <point x="626" y="1530.0"/>
      <point x="962" y="1530.0" type="qcurve" smooth="yes"/>
      <point x="1277" y="1530.0"/>
      <point x="1647" y="1124.0"/>
      <point x="1605" y="797.0" type="qcurve" smooth="yes"/>
      <point x="1574" y="551.0"/>
      <point x="1296" y="327.0"/>
      <point x="1151" y="327.0" type="qcurve" smooth="yes"/>
      <point x="1064" y="327.0"/>
      <point x="985" y="433.0"/>
      <point x="989" y="515.0" type="qcurve"/>
      <point x="937" y="445.0"/>
      <point x="721" y="319.0"/>
      <point x="611" y="319.0" type="qcurve" smooth="yes"/>
      <point x="518" y="319.0"/>
      <point x="410" y="444.0"/>
    </contour>
    <contour>
      <point x="527" y="590.0" type="qcurve" smooth="yes"/>
      <point x="527" y="491.0"/>
      <point x="580" y="429"/>
      <point x="660" y="429.0" type="qcurve" smooth="yes"/>
      <point x="758" y="429.0"/>
      <point x="1009" y="610.0"/>
      <point x="1036" y="739.0" type="qcurve" smooth="yes"/>
      <point x="1096" y="1013.0" type="line"/>
      <point x="1093" y="1052.0"/>
      <point x="1021" y="1093.0"/>
      <point x="959" y="1093.0" type="qcurve" smooth="yes"/>
      <point x="790" y="1093.0"/>
      <point x="527" y="779.0"/>
    </contour>
  </outline>
</glyph>
<glyph name="A" format="2">
  <advance width="1424"/>
  <unicode hex="0041"/>
  <outline>
    <contour>
      <point x="-155.0" y="0.0" type="line"/>
      <point x="-133.0" y="84.0" type="line"/>
      <point x="53.0" y="114.0" type="line"/>
      <point x="425.0" y="687.0" type="line"/>
      <point x="960.0" y="1517.0" type="line"/>
      <point x="1117.0" y="1499.0" type="line"/>
      <point x="1154.0" y="655.0" type="line"/>
      <point x="1173.0" y="125.0" type="line"/>
      <point x="1338.0" y="95.0" type="line"/>
      <point x="1334.0" y="0.0" type="line"/>
      <point x="882.0" y="0.0" type="line"/>
      <point x="886.0" y="95.0" type="line"/>
      <point x="1063.0" y="125.0" type="line"/>
      <point x="1044.0" y="648.0" type="line"/>
      <point x="1015.0" y="1414.0" type="line"/>
      <point x="1009.0" y="1420.0" type="line"/>
      <point x="500.0" y="625.0" type="line"/>
      <point x="183.0" y="114.0" type="line"/>
      <point x="354.0" y="84.0" type="line"/>
      <point x="342.0" y="0.0" type="line"/>
    </contour>
    <contour>
      <point x="398.0" y="518.0" type="line"/>
      <point x="454.0" y="630.0" type="line"/>
      <point x="728.0" y="624.0" type="line"/>
      <point x="698.0" y="532.0" type="line"/>
    </contour>
    <contour>
      <point x="728.0" y="624.0" type="line"/>
      <point x="1107.0" y="632.0" type="line"/>
      <point x="1100.0" y="530.0" type="line"/>
      <point x="698.0" y="532.0" type="line"/>
    </contour>
  </outline>
</glyph>
<glyph name="C" format="2">
  <advance width="1230"/>
  <unicode hex="0043"/>
  <outline>
    <contour>
      <point x="115.0" y="862.0" type="qcurve" smooth="yes"/>
      <point x="194.0" y="1191.0"/>
      <point x="622.0" y="1563.0"/>
      <point x="932.0" y="1530.0" type="qcurve" smooth="yes"/>
      <point x="1029" y="1520"/>
      <point x="1160.0" y="1469.0"/>
      <point x="1209.0" y="1448.0" type="qcurve"/>
      <point x="1235.0" y="1434.0" type="line"/>
      <point x="1259.0" y="1420.0" type="line"/>
      <point x="1195.0" y="1046.0" type="line"/>
      <point x="1102.0" y="1046.0" type="line"/>
      <point x="1120.0" y="1353.0" type="line"/>
      <point x="1109.0" y="1365.0"/>
      <point x="980" y="1416"/>
      <point x="893.0" y="1422.0" type="qcurve" smooth="yes"/>
      <point x="643.0" y="1438.0"/>
      <point x="296.0" y="1131.0"/>
      <point x="232.0" y="839.0" type="qcurve" smooth="yes"/>
      <point x="154.0" y="488.0"/>
      <point x="340.0" y="111.0"/>
      <point x="566.0" y="76.0" type="qcurve" smooth="yes"/>
      <point x="747.0" y="47.0"/>
      <point x="995.0" y="197.0"/>
      <point x="1092.0" y="321.0" type="qcurve"/>
      <point x="1116.0" y="307.0" type="line"/>
      <point x="1150.0" y="227.0" type="line"/>
      <point x="1050.0" y="83.0"/>
      <point x="746.0" y="-61.0"/>
      <point x="572.0" y="-37.0" type="qcurve" smooth="yes"/>
      <point x="270.0" y="5.0"/>
      <point x="23.0" y="477.0"/>
    </contour>
  </outline>
</glyph>
<glyph name="D" format="2">
  <advance width="1533"/>
  <unicode hex="0044"/>
  <outline>
    <contour>
      <point x="-37" y="0" type="line"/>
      <point x="-22" y="96" type="line"/>
      <point x="177" y="125" type="line"/>
      <point x="305" y="755" type="line"/>
      <point x="429" y="1385" type="line"/>
      <point x="209" y="1412" type="line"/>
      <point x="221" y="1500" type="line"/>
      <point x="843" y="1500" type="line" smooth="yes"/>
      <point x="1173" y="1500"/>
      <point x="1496" y="1077"/>
      <point x="1448" y="752" type="qcurve" smooth="yes"/>
      <point x="1400" y="423"/>
      <point x="981" y="0"/>
      <point x="611" y="0" type="qcurve" smooth="yes"/>
    </contour>
    <contour>
      <point x="294" y="128" type="line"/>
      <point x="324" y="122"/>
      <point x="535" y="106"/>
      <point x="603" y="106" type="qcurve" smooth="yes"/>
      <point x="905" y="106"/>
      <point x="1296" y="446"/>
      <point x="1343" y="731" type="qcurve" smooth="yes"/>
      <point x="1390" y="1016"/>
      <point x="1115" y="1398"/>
      <point x="829" y="1398" type="qcurve" smooth="yes"/>
      <point x="751" y="1398"/>
      <point x="568" y="1384"/>
      <point x="535" y="1381" type="qcurve"/>
      <point x="417" y="754" type="line"/>
    </contour>
  </outline>
</glyph>
<glyph name="E" format="2">
  <advance width="1171"/>
  <unicode hex="0045"/>
  <outline>
    <contour>
      <point x="-35.0" y="0.0" type="line"/>
      <point x="-15.0" y="94.0" type="line"/>
      <point x="182.0" y="124.0" type="line"/>
      <point x="318.0" y="806.0" type="line"/>
      <point x="425.0" y="1381.0" type="line"/>
      <point x="213.0" y="1406.0" type="line"/>
      <point x="227.0" y="1500.0" type="line"/>
      <point x="1185.0" y="1500.0" type="line"/>
      <point x="1154.0" y="1167.0" type="line"/>
      <point x="1070.0" y="1167.0" type="line"/>
      <point x="1035.0" y="1402.0" type="line"/>
      <point x="575.0" y="1402.0" type="line"/>
      <point x="540.0" y="1376.0" type="line"/>
      <point x="431.0" y="794.0" type="line"/>
      <point x="305.0" y="143.0" type="line"/>
      <point x="339.0" y="99.0" type="line"/>
      <point x="865.0" y="103.0" type="line"/>
      <point x="991.0" y="369.0" type="line"/>
      <point x="1081.0" y="369.0" type="line"/>
      <point x="992.0" y="0.0" type="line"/>
    </contour>
    <contour>
      <point x="400.0" y="752.0" type="line"/>
      <point x="419.0" y="842.0" type="line"/>
      <point x="843.0" y="850.0" type="line"/>
      <point x="907.0" y="1001.0" type="line"/>
      <point x="990.0" y="1001.0" type="line"/>
      <point x="905.0" y="551.0" type="line"/>
      <point x="816.0" y="551.0" type="line"/>
      <point x="821.0" y="741.0" type="line"/>
    </contour>
  </outline>
</glyph>
<glyph name="F" format="2">
  <advance width="1163"/>
  <unicode hex="0046"/>
  <outline>
    <contour>
      <point x="-23.0" y="0.0" type="line"/>
      <point x="-6.0" y="95.0" type="line"/>
      <point x="181.0" y="125.0" type="line"/>
      <point x="322.0" y="806.0" type="line"/>
      <point x="424.0" y="1382.0" type="line"/>
      <point x="214.0" y="1407.0" type="line"/>
      <point x="227.0" y="1500.0" type="line"/>
      <point x="1185.0" y="1500.0" type="line"/>
      <point x="1156.0" y="1187.0" type="line"/>
      <point x="1063.0" y="1187.0" type="line"/>
      <point x="1035.0" y="1405.0" type="line"/>
      <point x="576.0" y="1402.0" type="line"/>
      <point x="541.0" y="1382.0" type="line"/>
      <point x="430.0" y="801.0" type="line"/>
      <point x="301.0" y="124.0" type="line"/>
      <point x="520.0" y="94.0" type="line"/>
      <point x="505.0" y="0.0" type="line"/>
    </contour>
    <contour>
      <point x="367.0" y="713.0" type="line"/>
      <point x="386.0" y="805.0" type="line"/>
      <point x="872.0" y="810.0" type="line"/>
      <point x="944.0" y="973.0" type="line"/>
      <point x="1020.0" y="973.0" type="line"/>
      <point x="945.0" y="523.0" type="line"/>
      <point x="865.0" y="523.0" type="line"/>
      <point x="867.0" y="701.0" type="line"/>
    </contour>
  </outline>
</glyph>
<glyph name="H" format="2">
  <advance width="1696"/>
  <unicode hex="0048"/>
  <outline>
    <contour>
      <point x="-40.0" y="0.0" type="line"/>
      <point x="-17.0" y="94.0" type="line"/>
      <point x="180.0" y="125.0" type="line"/>
      <point x="315.0" y="806.0" type="line"/>
      <point x="424.0" y="1382.0" type="line"/>
      <point x="211.0" y="1407.0" type="line"/>
      <point x="222.0" y="1500.0" type="line"/>
      <point x="752.0" y="1500.0" type="line"/>
      <point x="734.0" y="1408.0" type="line"/>
      <point x="540.0" y="1382.0" type="line"/>
      <point x="425.0" y="777.0" type="line"/>
      <point x="302.0" y="125.0" type="line"/>
      <point x="506.0" y="94.0" type="line"/>
      <point x="491.0" y="0.0" type="line"/>
    </contour>
    <contour>
      <point x="375.0" y="733.0" type="line"/>
      <point x="398.0" y="838.0" type="line"/>
      <point x="855.0" y="835.0" type="line"/>
      <point x="1337.0" y="838.0" type="line"/>
      <point x="1314.0" y="732.0" type="line"/>
      <point x="830.0" y="743.0" type="line"/>
    </contour>
    <contour>
      <point x="946.0" y="0.0" type="line"/>
      <point x="967.0" y="94.0" type="line"/>
      <point x="1169.0" y="125.0" type="line"/>
      <point x="1293.0" y="772.0" type="line"/>
      <point x="1399.0" y="1382.0" type="line"/>
      <point x="1197.0" y="1408.0" type="line"/>
      <point x="1208.0" y="1501.0" type="line"/>
      <point x="1734.0" y="1501.0" type="line"/>
      <point x="1708.0" y="1408.0" type="line"/>
      <point x="1522.0" y="1382.0" type="line"/>
      <point x="1404.0" y="755.0" type="line"/>
      <point x="1287.0" y="125.0" type="line"/>
      <point x="1490.0" y="94.0" type="line"/>
      <point x="1475.0" y="0.0" type="line"/>
    </contour>
  </outline>
</glyph>
<glyph name="I" format="2">
  <advance width="667"/>
  <unicode hex="0049"/>
  <outline>
    <contour>
      <point x="-38" y="0" type="line"/>
      <point x="-21" y="92" type="line"/>
      <point x="176" y="123" type="line"/>
      <point x="316" y="806" type="line"/>
      <point x="422" y="1382" type="line"/>
      <point x="215" y="1408" type="line"/>
      <point x="226" y="1500" type="line"/>
      <point x="744" y="1500" type="line"/>
      <point x="726" y="1408" type="line"/>
      <point x="541" y="1382" type="line"/>
      <point x="428" y="790" type="line"/>
      <point x="302" y="123" type="line"/>
      <point x="506" y="92" type="line"/>
      <point x="494" y="0" type="line"/>
    </contour>
  </outline>
</glyph>
<glyph name="J" format="2">
  <advance width="713"/>
  <unicode hex="004A"/>
  <outline>
    <contour>
      <point x="-210" y="-216" type="qcurve"/>
      <point x="-185" y="-111" type="line"/>
      <point x="-161" y="-124"/>
      <point x="-74" y="-142"/>
      <point x="-24" y="-142" type="qcurve" smooth="yes"/>
      <point x="85" y="-142"/>
      <point x="172" y="-1"/>
      <point x="201" y="151" type="qcurve" smooth="yes"/>
      <point x="317" y="754" type="line"/>
      <point x="434" y="1384" type="line"/>
      <point x="225" y="1410" type="line"/>
      <point x="242" y="1500" type="line"/>
      <point x="764" y="1500" type="line"/>
      <point x="739" y="1410" type="line"/>
      <point x="555" y="1384" type="line"/>
      <point x="430" y="754" type="line"/>
      <point x="324" y="176" type="line" smooth="yes"/>
      <point x="278" y="-74"/>
      <point x="115" y="-259"/>
      <point x="-14" y="-259" type="qcurve" smooth="yes"/>
      <point x="-103" y="-259"/>
      <point x="-180" y="-230"/>
    </contour>
  </outline>
</glyph>
<glyph name="K" format="2">
  <advance width="1316"/>
  <unicode hex="004B"/>
  <outline>
    <contour>
      <point x="-30.0" y="0.0" type="line"/>
      <point x="-12.0" y="95.0" type="line"/>
      <point x="182.0" y="125.0" type="line"/>
      <point x="315.0" y="806.0" type="line"/>
      <point x="426.0" y="1382.0" type="line"/>
      <point x="212.0" y="1408.0" type="line"/>
      <point x="222.0" y="1500.0" type="line"/>
      <point x="756.0" y="1500.0" type="line"/>
      <point x="739.0" y="1408.0" type="line"/>
      <point x="542.0" y="1382.0" type="line"/>
      <point x="429.0" y="790.0" type="line"/>
      <point x="303.0" y="125.0" type="line"/>
      <point x="505.0" y="95.0" type="line"/>
      <point x="492.0" y="0.0" type="line"/>
    </contour>
    <contour>
      <point x="356.0" y="532.0" type="line"/>
      <point x="386.0" y="685.0" type="line"/>
      <point x="1115.0" y="1386.0" type="line"/>
      <point x="971.0" y="1410.0" type="line"/>
      <point x="985.0" y="1500.0" type="line"/>
      <point x="1421.0" y="1500.0" type="line"/>
      <point x="1405.0" y="1410.0" type="line"/>
      <point x="1252.0" y="1385.0" type="line"/>
    </contour>
    <contour>
      <point x="645.0" y="862.0" type="line"/>
      <point x="734.0" y="940.0" type="line"/>
      <point x="1149.0" y="111.0" type="line"/>
      <point x="1318.0" y="84.0" type="line"/>
      <point x="1306.0" y="0.0" type="line"/>
      <point x="844.0" y="0.0" type="line"/>
      <point x="856.0" y="84.0" type="line"/>
      <point x="1017.0" y="111.0" type="line"/>
    </contour>
  </outline>
</glyph>
<glyph name="M" format="2">
  <advance width="2015"/>
  <unicode hex="004D"/>
  <outline>
    <contour>
      <point x="-38" y="0" type="line"/>
      <point x="-23" y="94" type="line"/>
      <point x="177" y="124" type="line"/>
      <point x="302" y="753" type="line"/>
      <point x="425" y="1381" type="line"/>
      <point x="220" y="1407" type="line"/>
      <point x="244" y="1500" type="line"/>
      <point x="612" y="1500" type="line"/>
      <point x="753" y="805" type="line"/>
      <point x="893" y="155" type="line"/>
      <point x="1263" y="786" type="line"/>
      <point x="1676" y="1500" type="line"/>
      <point x="2045" y="1500" type="line"/>
      <point x="2027" y="1407" type="line"/>
      <point x="1840" y="1379" type="line"/>
      <point x="1722" y="754" type="line"/>
      <point x="1607" y="124" type="line"/>
      <point x="1803" y="94" type="line"/>
      <point x="1790" y="0" type="line"/>
      <point x="1265" y="0" type="line"/>
      <point x="1278" y="94" type="line"/>
      <point x="1488" y="124" type="line"/>
      <point x="1610" y="753" type="line"/>
      <point x="1715" y="1368" type="line"/>
      <point x="1348" y="729" type="line"/>
      <point x="918" y="-7" type="line"/>
      <point x="803" y="-7" type="line"/>
      <point x="646" y="771" type="line"/>
      <point x="524" y="1375" type="line"/>
      <point x="405" y="753" type="line"/>
      <point x="291" y="124" type="line"/>
      <point x="491" y="94" type="line"/>
      <point x="479" y="0" type="line"/>
    </contour>
  </outline>
</glyph>
<glyph name="N" format="2">
  <advance width="1536"/>
  <unicode hex="004E"/>
  <outline>
    <contour>
      <point x="-77.0" y="0.0" type="line"/>
      <point x="-58.0" y="104.0" type="line"/>
      <point x="135.0" y="121.0" type="line"/>
      <point x="259.0" y="753.0" type="line"/>
      <point x="382.0" y="1389.0" type="line"/>
      <point x="181.0" y="1402.0" type="line"/>
      <point x="206.0" y="1500.0" type="line"/>
      <point x="579.0" y="1500.0" type="line"/>
      <point x="848.0" y="796.0" type="line"/>
      <point x="1098.0" y="169.0" type="line"/>
      <point x="1219.0" y="770.0" type="line"/>
      <point x="1331.0" y="1381.0" type="line"/>
      <point x="1121.0" y="1407.0" type="line"/>
      <point x="1139.0" y="1500.0" type="line"/>
      <point x="1673.0" y="1500.0" type="line"/>
      <point x="1656.0" y="1406.0" type="line"/>
      <point x="1465.0" y="1380.0" type="line"/>
      <point x="1340.0" y="753.0" type="line"/>
      <point x="1196.0" y="-4.0" type="line"/>
      <point x="1021.0" y="-4.0" type="line"/>
      <point x="722.0" y="773.0" type="line"/>
      <point x="499.0" y="1364.0" type="line"/>
      <point x="384.0" y="755.0" type="line"/>
      <point x="269.0" y="124.0" type="line"/>
      <point x="486.0" y="101.0" type="line"/>
      <point x="463.0" y="0.0" type="line"/>
    </contour>
  </outline>
</glyph>
<glyph name="O" format="2">
  <advance width="1629"/>
  <unicode hex="004F"/>
  <outline>
    <contour>
      <point x="110.0" y="885.0" type="qcurve" smooth="yes"/>
      <point x="200.0" y="1258.0"/>
      <point x="711.0" y="1583.0"/>
      <point x="1023.0" y="1531.0" type="qcurve" smooth="yes"/>
      <point x="1317.0" y="1482.0"/>
      <point x="1600.0" y="969.0"/>
      <point x="1513.0" y="636.0" type="qcurve" smooth="yes"/>
      <point x="1417.0" y="266.0"/>
      <point x="916.0" y="-72.0"/>
      <point x="612.0" y="-38.0" type="qcurve" smooth="yes"/>
      <point x="327.0" y="-7.0"/>
      <point x="15.0" y="491.0"/>
    </contour>
    <contour>
      <point x="228.0" y="857.0" type="qcurve" smooth="yes"/>
      <point x="152.0" y="517.0"/>
      <point x="387.0" y="100.0"/>
      <point x="629.0" y="67.0" type="qcurve" smooth="yes"/>
      <point x="852" y="37"/>
      <point x="1319.0" y="345.0"/>
      <point x="1390.0" y="646.0" type="qcurve" smooth="yes"/>
      <point x="1464.0" y="964.0"/>
      <point x="1230.0" y="1374.0"/>
      <point x="991.0" y="1419.0" type="qcurve" smooth="yes"/>
      <point x="733.0" y="1466.0"/>
      <point x="300" y="1178"/>
    </contour>
  </outline>
</glyph>
<glyph name="P" format="2">
  <advance width="1198"/>
  <unicode hex="0050"/>
  <outline>
    <contour>
      <point x="-37.0" y="0.0" type="line"/>
      <point x="-16.0" y="96.0" type="line"/>
      <point x="178.0" y="121.0" type="line"/>
      <point x="301.0" y="754.0" type="line"/>
      <point x="424.0" y="1382.0" type="line"/>
      <point x="214.0" y="1404.0" type="line"/>
      <point x="223.0" y="1500.0" type="line"/>
      <point x="804.0" y="1500.0" type="line" smooth="yes"/>
      <point x="1021.0" y="1501.0"/>
      <point x="1246.0" y="1241.0"/>
      <point x="1211.0" y="1034.0" type="qcurve" smooth="yes"/>
      <point x="1176.0" y="833.0"/>
      <point x="865" y="620"/>
      <point x="660" y="620" type="qcurve" smooth="yes"/>
      <point x="531" y="620"/>
      <point x="386.0" y="647.0"/>
      <point x="341.0" y="661.0" type="qcurve"/>
      <point x="356.0" y="746.0" type="line"/>
      <point x="405.0" y="734.0"/>
      <point x="549.0" y="719.0"/>
      <point x="622.0" y="719.0" type="qcurve" smooth="yes"/>
      <point x="800.0" y="719.0"/>
      <point x="1048" y="861"/>
      <point x="1083" y="1039" type="qcurve" smooth="yes"/>
      <point x="1114" y="1197"/>
      <point x="960.0" y="1396.0"/>
      <point x="773.0" y="1396.0" type="qcurve" smooth="yes"/>
      <point x="568.0" y="1396.0" type="line"/>
      <point x="542.0" y="1374.0" type="line"/>
      <point x="426.0" y="764.0" type="line"/>
      <point x="303.0" y="122.0" type="line"/>
      <point x="509.0" y="93.0" type="line"/>
      <point x="492.0" y="0.0" type="line"/>
    </contour>
  </outline>
</glyph>
<glyph name="Q" format="2">
  <advance width="1629"/>
  <unicode hex="0051"/>
  <outline>
    <contour>
      <point x="110.0" y="885.0" type="qcurve" smooth="yes"/>
      <point x="200.0" y="1258.0"/>
      <point x="711.0" y="1583.0"/>
      <point x="1023.0" y="1531.0" type="qcurve" smooth="yes"/>
      <point x="1317.0" y="1482.0"/>
      <point x="1600.0" y="969.0"/>
      <point x="1513.0" y="636.0" type="qcurve" smooth="yes"/>
      <point x="1417.0" y="266.0"/>
      <point x="916.0" y="-72.0"/>
      <point x="612.0" y="-38.0" type="qcurve" smooth="yes"/>
      <point x="327.0" y="-7.0"/>
      <point x="15.0" y="491.0"/>
    </contour>
    <contour>
      <point x="228.0" y="857.0" type="qcurve" smooth="yes"/>
      <point x="152.0" y="517.0"/>
      <point x="387.0" y="100.0"/>
      <point x="629.0" y="67.0" type="qcurve" smooth="yes"/>
      <point x="852" y="37"/>
      <point x="1319.0" y="345.0"/>
      <point x="1390.0" y="646.0" type="qcurve" smooth="yes"/>
      <point x="1464.0" y="964.0"/>
      <point x="1230.0" y="1374.0"/>
      <point x="991.0" y="1419.0" type="qcurve" smooth="yes"/>
      <point x="733.0" y="1466.0"/>
      <point x="300" y="1178"/>
    </contour>
    <contour>
      <point x="66.0" y="-315.0" type="line"/>
      <point x="105.0" y="-228.0"/>
      <point x="300.0" y="-102.0"/>
      <point x="392.0" y="-93.0" type="qcurve"/>
      <point x="413.0" y="-61.0"/>
      <point x="471.0" y="27.0"/>
      <point x="467.0" y="30.0" type="qcurve" smooth="yes"/>
      <point x="474.0" y="39.0"/>
      <point x="479.0" y="49.0"/>
      <point x="487.0" y="57.0" type="qcurve"/>
      <point x="501.0" y="50.0"/>
      <point x="560.0" y="15.0"/>
      <point x="568.0" y="6.0" type="qcurve"/>
      <point x="561.0" y="-3.0"/>
      <point x="553.0" y="-14.0"/>
      <point x="543.0" y="-24.0" type="qcurve" smooth="yes"/>
      <point x="560.0" y="-12.0"/>
      <point x="499.0" y="-96.0"/>
      <point x="486.0" y="-120.0" type="qcurve"/>
      <point x="950.0" y="-355.0" type="line" smooth="yes"/>
      <point x="1009" y="-385"/>
      <point x="1166.0" y="-292.0"/>
      <point x="1252.0" y="-158.0" type="qcurve"/>
      <point x="1338.0" y="-185.0" type="line"/>
      <point x="1264.0" y="-356.0"/>
      <point x="1044.0" y="-500.0"/>
      <point x="934.0" y="-500.0" type="qcurve"/>
      <point x="428.0" y="-244.0" type="line"/>
      <point x="337.0" y="-225.0"/>
      <point x="175.0" y="-291.0"/>
      <point x="129.0" y="-368.0" type="qcurve"/>
    </contour>
  </outline>
</glyph>
<glyph name="R" format="2">
  <advance width="1265"/>
  <unicode hex="0052"/>
  <outline>
    <contour>
      <point x="-28.0" y="0.0" type="line"/>
      <point x="-8.0" y="94.0" type="line"/>
      <point x="182.0" y="123.0" type="line"/>
      <point x="308.0" y="754.0" type="line"/>
      <point x="424.0" y="1380.0" type="line"/>
      <point x="212.0" y="1407.0" type="line"/>
      <point x="223.0" y="1500.0" type="line"/>
      <point x="811.0" y="1500.0" type="line" smooth="yes"/>
      <point x="1004.0" y="1502.0"/>
      <point x="1205.0" y="1275.0"/>
      <point x="1175.0" y="1091.0" type="qcurve" smooth="yes"/>
      <point x="1147.0" y="909.0"/>
      <point x="907.0" y="706.0"/>
      <point x="696.0" y="706.0" type="qcurve" smooth="yes"/>
      <point x="635.0" y="706.0"/>
      <point x="429.0" y="705.0"/>
      <point x="378.0" y="710.0" type="qcurve"/>
      <point x="394.0" y="806.0" type="line"/>
      <point x="508.0" y="806.0" type="line"/>
      <point x="676.0" y="806.0" type="line" smooth="yes"/>
      <point x="851.0" y="806.0"/>
      <point x="1041.0" y="961.0"/>
      <point x="1061.0" y="1100.0" type="qcurve" smooth="yes"/>
      <point x="1081.0" y="1238.0"/>
      <point x="940.0" y="1397.0"/>
      <point x="812.0" y="1397.0" type="qcurve" smooth="yes"/>
      <point x="566.0" y="1397.0" type="line"/>
      <point x="540.0" y="1375.0" type="line"/>
      <point x="422.0" y="754.0" type="line"/>
      <point x="301.0" y="123.0" type="line"/>
      <point x="507.0" y="97.0" type="line"/>
      <point x="496.0" y="0.0" type="line"/>
    </contour>
    <contour>
      <point x="712.0" y="781.0" type="line"/>
      <point x="818.0" y="800.0" type="line"/>
      <point x="841.0" y="718.0" type="line" smooth="yes"/>
      <point x="912" y="465"/>
      <point x="1089" y="86.0"/>
      <point x="1254.0" y="86.0" type="qcurve"/>
      <point x="1241.0" y="0.0" type="line"/>
      <point x="1165.0" y="0.0" type="line" smooth="yes"/>
      <point x="989.0" y="0"/>
      <point x="801.0" y="443.0"/>
      <point x="734.0" y="701.0" type="qcurve" smooth="yes"/>
    </contour>
  </outline>
</glyph>
<glyph name="S" format="2">
  <advance width="999"/>
  <unicode hex="0053"/>
  <outline>
    <contour>
      <point x="-59.0" y="10.0" type="line"/>
      <point x="11.0" y="484.0" type="line"/>
      <point x="108.0" y="484.0" type="line"/>
      <point x="100.0" y="328.0" type="line" smooth="yes"/>
      <point x="95" y="231"/>
      <point x="271.0" y="69.0"/>
      <point x="440.0" y="69.0" type="qcurve" smooth="yes"/>
      <point x="590.0" y="69.0"/>
      <point x="780.0" y="231.0"/>
      <point x="780.0" y="366.0" type="qcurve" smooth="yes"/>
      <point x="780.0" y="479.0"/>
      <point x="660.0" y="662.0"/>
      <point x="479.0" y="774.0" type="qcurve" smooth="yes"/>
      <point x="354.0" y="850.0"/>
      <point x="170.0" y="1046.0"/>
      <point x="170.0" y="1190.0" type="qcurve" smooth="yes"/>
      <point x="170.0" y="1344.0"/>
      <point x="391.0" y="1550.0"/>
      <point x="600.0" y="1550.0" type="qcurve" smooth="yes"/>
      <point x="732.0" y="1550.0"/>
      <point x="881.0" y="1463.0"/>
      <point x="914.0" y="1423.0" type="qcurve"/>
      <point x="973.0" y="1526.0" type="line"/>
      <point x="1039.0" y="1517.0" type="line"/>
      <point x="981.0" y="1085.0" type="line"/>
      <point x="889.0" y="1085.0" type="line"/>
      <point x="891.0" y="1248.0" type="line"/>
      <point x="891.0" y="1312.0"/>
      <point x="741.0" y="1440.0"/>
      <point x="607.0" y="1440.0" type="qcurve" smooth="yes"/>
      <point x="457.0" y="1440.0"/>
      <point x="297.0" y="1312.0"/>
      <point x="297.0" y="1212.0" type="qcurve" smooth="yes"/>
      <point x="297.0" y="1111.0"/>
      <point x="408.0" y="960.0"/>
      <point x="575.0" y="846.0" type="qcurve" smooth="yes"/>
      <point x="740.0" y="734.0"/>
      <point x="907.0" y="532.0"/>
      <point x="906.0" y="383.0" type="qcurve" smooth="yes"/>
      <point x="905.0" y="210.0"/>
      <point x="658.0" y="-40.0"/>
      <point x="460.0" y="-40.0" type="qcurve" smooth="yes"/>
      <point x="336.0" y="-40.0"/>
      <point x="158.0" y="19.0"/>
      <point x="90.0" y="83.0" type="qcurve"/>
      <point x="33.0" y="-13.0" type="line"/>
    </contour>
  </outline>
</glyph>
<glyph name="T" format="2">
  <advance width="1214"/>
  <unicode hex="0054"/>
  <outline>
    <contour>
      <point x="96.0" y="1119.0" type="line"/>
      <point x="171.0" y="1500.0" type="line"/>
      <point x="1349.0" y="1500.0" type="line"/>
      <point x="1284.0" y="1119.0" type="line"/>
      <point x="1174.0" y="1119.0" type="line"/>
      <point x="1172.0" y="1402.0" type="line"/>
      <point x="821.0" y="1402.0" type="line"/>
      <point x="799.0" y="1382.0" type="line"/>
      <point x="685.0" y="754.0" type="line"/>
      <point x="561.0" y="121.0" type="line"/>
      <point x="757.0" y="87.0" type="line"/>
      <point x="743.0" y="0.0" type="line"/>
      <point x="216.0" y="0.0" type="line"/>
      <point x="236.0" y="87.0" type="line"/>
      <point x="426.0" y="121.0" type="line"/>
      <point x="549.0" y="754.0" type="line"/>
      <point x="670.0" y="1382.0" type="line"/>
      <point x="666.0" y="1402.0" type="line"/>
      <point x="308.0" y="1402.0" type="line"/>
      <point x="205.0" y="1119.0" type="line"/>
    </contour>
  </outline>
</glyph>
<glyph name="U" format="2">
  <advance width="1507"/>
  <unicode hex="0055"/>
  <outline>
    <contour>
      <point x="187" y="1408" type="line"/>
      <point x="201" y="1500" type="line"/>
      <point x="707" y="1500" type="line"/>
      <point x="693" y="1408" type="line"/>
      <point x="499" y="1382" type="line"/>
      <point x="380" y="794" type="line" smooth="yes"/>
      <point x="361" y="702"/>
      <point x="311" y="458"/>
      <point x="311" y="368" type="qcurve" smooth="yes"/>
      <point x="311" y="214"/>
      <point x="498" y="80"/>
      <point x="687" y="80" type="qcurve" smooth="yes"/>
      <point x="894" y="80"/>
      <point x="1103" y="315"/>
      <point x="1138" y="510" type="qcurve" smooth="yes"/>
      <point x="1189" y="794" type="line"/>
      <point x="1291" y="1382" type="line"/>
      <point x="1079" y="1408" type="line"/>
      <point x="1092" y="1500" type="line"/>
      <point x="1607" y="1500" type="line"/>
      <point x="1593" y="1408" type="line"/>
      <point x="1399" y="1382" type="line"/>
      <point x="1287" y="794" type="line"/>
      <point x="1232" y="493" type="line" smooth="yes"/>
      <point x="1187" y="246"/>
      <point x="912" y="-32"/>
      <point x="676" y="-32" type="qcurve" smooth="yes"/>
      <point x="430" y="-32"/>
      <point x="191" y="166"/>
      <point x="191" y="335" type="qcurve" smooth="yes"/>
      <point x="191" y="445"/>
      <point x="226" y="616"/>
      <point x="263" y="794" type="qcurve" smooth="yes"/>
      <point x="381" y="1382" type="line"/>
    </contour>
  </outline>
</glyph>
<glyph name="V" format="2">
  <advance width="1297"/>
  <unicode hex="0056"/>
  <outline>
    <contour>
      <point x="18" y="1402" type="line"/>
      <point x="37" y="1500" type="line"/>
      <point x="601" y="1500" type="line"/>
      <point x="592" y="1405" type="line"/>
      <point x="371" y="1382" type="line"/>
      <point x="429" y="768" type="line"/>
      <point x="491" y="112" type="line"/>
      <point x="496" y="112" type="line"/>
      <point x="867" y="814" type="line"/>
      <point x="1165" y="1381" type="line"/>
      <point x="962" y="1405" type="line"/>
      <point x="976" y="1500" type="line"/>
      <point x="1481" y="1500" type="line"/>
      <point x="1457" y="1407" type="line"/>
      <point x="1274" y="1381" type="line"/>
      <point x="941" y="764" type="line"/>
      <point x="525" y="-7" type="line"/>
      <point x="390" y="-7" type="line"/>
      <point x="316" y="758" type="line"/>
      <point x="256" y="1382" type="line"/>
    </contour>
  </outline>
</glyph>
<glyph name="W" format="2">
  <advance width="1825"/>
  <unicode hex="0057"/>
  <outline>
    <contour>
      <point x="111" y="1405" type="line"/>
      <point x="122" y="1500" type="line"/>
      <point x="586" y="1500" type="line"/>
      <point x="574" y="1406" type="line"/>
      <point x="395" y="1383" type="line"/>
      <point x="428" y="771" type="line"/>
      <point x="464" y="115" type="line"/>
      <point x="468" y="115" type="line"/>
      <point x="735" y="659" type="line"/>
      <point x="969" y="1134" type="line"/>
      <point x="989" y="1016" type="line"/>
      <point x="786" y="599" type="line"/>
      <point x="491" y="-5" type="line"/>
      <point x="356" y="-5" type="line"/>
      <point x="314" y="760" type="line"/>
      <point x="279" y="1382" type="line"/>
    </contour>
    <contour>
      <point x="758" y="1409" type="line"/>
      <point x="764" y="1500" type="line"/>
      <point x="1236" y="1500" type="line"/>
      <point x="1231" y="1409" type="line"/>
      <point x="1035" y="1382" type="line"/>
      <point x="1066" y="780" type="line"/>
      <point x="1101" y="119" type="line"/>
      <point x="1104" y="119" type="line"/>
      <point x="1394" y="757" type="line"/>
      <point x="1678" y="1379" type="line"/>
      <point x="1501" y="1408" type="line"/>
      <point x="1519" y="1500" type="line"/>
      <point x="1988" y="1500" type="line"/>
      <point x="1964" y="1408" type="line"/>
      <point x="1782" y="1378" type="line"/>
      <point x="1468" y="712" type="line"/>
      <point x="1130" y="-5" type="line"/>
      <point x="995" y="-5" type="line"/>
      <point x="951" y="764" type="line"/>
      <point x="916" y="1381" type="line"/>
    </contour>
  </outline>
</glyph>
<glyph name="X" format="2">
  <advance width="1232"/>
  <unicode hex="0058"/>
  <outline>
    <contour>
      <point x="-112" y="0" type="line"/>
      <point x="-83" y="92" type="line"/>
      <point x="103" y="122" type="line"/>
      <point x="620" y="807" type="line"/>
      <point x="631" y="822" type="line"/>
      <point x="1057" y="1387" type="line"/>
      <point x="864" y="1417" type="line"/>
      <point x="881" y="1500" type="line"/>
      <point x="1373" y="1500" type="line"/>
      <point x="1343" y="1417" type="line"/>
      <point x="1162" y="1392" type="line"/>
      <point x="669" y="739" type="line"/>
      <point x="658" y="724" type="line"/>
      <point x="204" y="122" type="line"/>
      <point x="410" y="92" type="line"/>
      <point x="391" y="0" type="line"/>
    </contour>
    <contour>
      <point x="167" y="1417" type="line"/>
      <point x="170" y="1500" type="line"/>
      <point x="645" y="1500" type="line"/>
      <point x="642" y="1417" type="line"/>
      <point x="462" y="1392" type="line"/>
      <point x="675" y="844" type="line"/>
      <point x="957" y="117" type="line"/>
      <point x="1170" y="87" type="line"/>
      <point x="1159" y="0" type="line"/>
      <point x="665" y="0" type="line"/>
      <point x="676" y="87" type="line"/>
      <point x="834" y="117" type="line"/>
      <point x="572" y="792" type="line"/>
      <point x="340" y="1391" type="line"/>
    </contour>
  </outline>
</glyph>
<glyph name="Y" format="2">
  <advance width="1199"/>
  <unicode hex="0059"/>
  <outline>
    <contour>
      <point x="50" y="1413" type="line"/>
      <point x="55" y="1500" type="line"/>
      <point x="523" y="1500" type="line"/>
      <point x="518" y="1413" type="line"/>
      <point x="354" y="1391" type="line"/>
      <point x="464" y="1044" type="line"/>
      <point x="575" y="695" type="line"/>
      <point x="837" y="1079" type="line"/>
      <point x="1043" y="1381" type="line"/>
      <point x="885" y="1408" type="line"/>
      <point x="897" y="1500" type="line"/>
      <point x="1319" y="1500" type="line"/>
      <point x="1307" y="1408" type="line"/>
      <point x="1154" y="1381" type="line"/>
      <point x="916" y="1042" type="line"/>
      <point x="612" y="609" type="line"/>
      <point x="518" y="120" type="line"/>
      <point x="730" y="90" type="line"/>
      <point x="718" y="0" type="line"/>
      <point x="173" y="0" type="line"/>
      <point x="188" y="91" type="line"/>
      <point x="399" y="120" type="line"/>
      <point x="496" y="593" type="line"/>
      <point x="362" y="1009" type="line"/>
      <point x="241" y="1386" type="line"/>
    </contour>
  </outline>
</glyph>
<glyph name="bracketleft" format="2">
  <advance width="598"/>
  <unicode hex="005B"/>
  <outline>
    <contour>
      <point x="114.0" y="508.0" type="line"/>
      <point x="291.0" y="1427.0" type="line"/>
      <point x="286.0" y="1447.0" type="line"/>
      <point x="296.0" y="1500.0" type="line"/>
      <point x="664.0" y="1500.0" type="line"/>
      <point x="644.0" y="1414.0" type="line"/>
      <point x="392.0" y="1395.0" type="line"/>
      <point x="230.0" y="508.0" type="line"/>
      <point x="54.0" y="-373.0" type="line"/>
      <point x="299.0" y="-392.0" type="line"/>
      <point x="279.0" y="-480.0" type="line"/>
      <point x="-99.0" y="-480.0" type="line"/>
      <point x="-87.0" y="-427.0" type="line"/>
      <point x="-64.0" y="-407.0" type="line"/>
    </contour>
  </outline>
</glyph>
<glyph name="backslash" format="2">
  <advance width="599"/>
  <unicode hex="005C"/>
  <outline>
    <contour>
      <point x="128.0" y="1522.0" type="line"/>
      <point x="216.0" y="1535.0" type="line"/>
      <point x="507.0" y="-138.0" type="line"/>
      <point x="419.0" y="-151.0" type="line"/>
    </contour>
  </outline>
</glyph>
<glyph name="asciicircum" format="2">
  <advance width="1250"/>
  <unicode hex="005E"/>
  <outline>
    <contour>
      <point x="127.0" y="926.0" type="line"/>
      <point x="183.0" y="988.0"/>
      <point x="729.0" y="1514.0"/>
      <point x="729.0" y="1514.0" type="qcurve"/>
      <point x="729.0" y="1514.0"/>
      <point x="1128.0" y="993.0"/>
      <point x="1179.0" y="927.0" type="qcurve"/>
      <point x="1116.0" y="876.0" type="line"/>
      <point x="1013.0" y="998.0"/>
      <point x="700.0" y="1372.0"/>
      <point x="700.0" y="1372.0" type="qcurve"/>
      <point x="700.0" y="1372.0"/>
      <point x="313.0" y="991.0"/>
      <point x="179.0" y="864.0" type="qcurve"/>
    </contour>
  </outline>
</glyph>
<glyph name="grave" format="2">
  <advance width="1024"/>
  <unicode hex="0060"/>
  <outline>
    <contour>
      <point x="597.0" y="1316.0" type="line" smooth="yes"/>
      <point x="565.0" y="1342.0"/>
      <point x="506.0" y="1391.0"/>
      <point x="508.0" y="1414.0" type="qcurve" smooth="yes"/>
      <point x="511" y="1446"/>
      <point x="551.0" y="1480.0"/>
      <point x="577.0" y="1479.0" type="qcurve" smooth="yes"/>
      <point x="603" y="1478"/>
      <point x="655" y="1422"/>
      <point x="677.0" y="1393.0" type="qcurve" smooth="yes"/>
      <point x="838.0" y="1177.0" type="line"/>
      <point x="805.0" y="1144.0" type="line"/>
    </contour>
  </outline>
</glyph>
<glyph name="a" format="2">
  <advance width="1109"/>
  <unicode hex="0061"/>
  <outline>
    <contour>
      <point x="17" y="281" type="qcurve" smooth="yes"/>
      <point x="17" y="552"/>
      <point x="426" y="1050"/>
      <point x="669" y="1050" type="qcurve" smooth="yes"/>
      <point x="729" y="1050"/>
      <point x="827" y="1011"/>
      <point x="853" y="992" type="qcurve"/>
      <point x="905" y="1096" type="line"/>
      <point x="943" y="1096" type="line"/>
      <point x="994" y="946" type="line"/>
      <point x="855" y="389" type="line"/>
      <point x="821" y="209" type="line"/>
      <point x="827" y="158"/>
      <point x="862" y="82"/>
      <point x="890" y="40" type="qcurve"/>
      <point x="777" y="-23" type="line"/>
      <point x="745" y="26"/>
      <point x="715" y="133"/>
      <point x="721" y="194" type="qcurve"/>
      <point x="616" y="78"/>
      <point x="386" y="-20"/>
      <point x="271" y="-20" type="qcurve" smooth="yes"/>
      <point x="149" y="-20"/>
      <point x="17" y="128"/>
    </contour>
    <contour>
      <point x="145" y="317" type="qcurve" smooth="yes"/>
      <point x="144" y="199"/>
      <point x="233" y="91"/>
      <point x="331" y="91" type="qcurve" smooth="yes"/>
      <point x="446" y="91"/>
      <point x="703" y="242"/>
      <point x="743" y="408" type="qcurve" smooth="yes"/>
      <point x="849" y="850" type="line"/>
      <point x="845" y="888"/>
      <point x="749" y="945"/>
      <point x="658" y="945" type="qcurve" smooth="yes"/>
      <point x="447" y="945"/>
      <point x="148" y="541"/>
    </contour>
  </outline>
</glyph>
<glyph name="b" format="2">
  <advance width="1111"/>
  <unicode hex="0062"/>
  <outline>
    <contour>
      <point x="59" y="220" type="qcurve" smooth="yes"/>
      <point x="167" y="644" type="line"/>
      <point x="341" y="1447" type="line"/>
      <point x="204" y="1482" type="line"/>
      <point x="224" y="1546" type="line"/>
      <point x="450" y="1608" type="line"/>
      <point x="483" y="1571" type="line"/>
      <point x="273" y="631" type="line"/>
      <point x="171" y="172" type="line" smooth="yes"/>
      <point x="154" y="95"/>
      <point x="232" y="57"/>
      <point x="316" y="57" type="qcurve" smooth="yes"/>
      <point x="515" y="57"/>
      <point x="889" y="441"/>
      <point x="889" y="699" type="qcurve" smooth="yes"/>
      <point x="889" y="845"/>
      <point x="802" y="957"/>
      <point x="718" y="957" type="qcurve" smooth="yes"/>
      <point x="592" y="957"/>
      <point x="355" y="794"/>
      <point x="248" y="679" type="qcurve"/>
      <point x="273" y="792" type="line"/>
      <point x="387" y="928"/>
      <point x="641" y="1074"/>
      <point x="756" y="1074" type="qcurve" smooth="yes"/>
      <point x="881" y="1074"/>
      <point x="1030" y="917"/>
      <point x="1030" y="775" type="qcurve" smooth="yes"/>
      <point x="1030" y="445"/>
      <point x="571" y="-35"/>
      <point x="255" y="-35" type="qcurve" smooth="yes"/>
      <point x="130" y="-35"/>
      <point x="22" y="100"/>
    </contour>
  </outline>
</glyph>
<glyph name="c" format="2">
  <advance width="925"/>
  <unicode hex="0063"/>
  <outline>
    <contour>
      <point x="36" y="541" type="qcurve" smooth="yes"/>
      <point x="89" y="806"/>
      <point x="405" y="1090"/>
      <point x="612" y="1090" type="qcurve" smooth="yes"/>
      <point x="749" y="1090"/>
      <point x="907" y="951"/>
      <point x="907" y="849" type="qcurve" smooth="yes"/>
      <point x="907" y="767"/>
      <point x="854" y="694"/>
      <point x="821" y="675" type="qcurve"/>
      <point x="760" y="726" type="line"/>
      <point x="769" y="885" type="line" smooth="yes"/>
      <point x="772" y="937"/>
      <point x="672" y="994"/>
      <point x="612" y="994" type="qcurve" smooth="yes"/>
      <point x="498" y="994"/>
      <point x="209" y="788"/>
      <point x="163" y="545" type="qcurve" smooth="yes"/>
      <point x="111" y="270"/>
      <point x="275" y="65"/>
      <point x="410" y="65" type="qcurve" smooth="yes"/>
      <point x="540" y="65"/>
      <point x="731" y="194"/>
      <point x="800" y="294" type="qcurve"/>
      <point x="858" y="252" type="line"/>
      <point x="858" y="223" type="line"/>
      <point x="778" y="100"/>
      <point x="541" y="-41"/>
      <point x="375" y="-41" type="qcurve" smooth="yes"/>
      <point x="166" y="-41"/>
      <point x="-21" y="258"/>
    </contour>
  </outline>
</glyph>
<glyph name="d" format="2">
  <advance width="1173"/>
  <unicode hex="0064"/>
  <outline>
    <contour>
      <point x="40.0" y="243.0" type="qcurve" smooth="yes"/>
      <point x="45.0" y="579.0"/>
      <point x="444.0" y="1064.0"/>
      <point x="795.0" y="1055.0" type="qcurve" smooth="yes"/>
      <point x="919.0" y="1055.0" type="line"/>
      <point x="1005.0" y="1450.0" type="line"/>
      <point x="863.0" y="1483.0" type="line"/>
      <point x="874.0" y="1546.0" type="line"/>
      <point x="1125.0" y="1608.0" type="line"/>
      <point x="1151.0" y="1571.0" type="line"/>
      <point x="908.0" y="469.0" type="line"/>
      <point x="817.0" y="124.0" type="line"/>
      <point x="1033.0" y="124.0" type="line"/>
      <point x="1024.0" y="44.0" type="line"/>
      <point x="788.0" y="-16.0" type="line"/>
      <point x="734.0" y="78.0" type="line"/>
      <point x="733.0" y="160.0" type="line"/>
      <point x="661.0" y="105.0"/>
      <point x="435.0" y="-20.0"/>
      <point x="285.0" y="-20.0" type="qcurve" smooth="yes"/>
      <point x="162.0" y="-20.0"/>
      <point x="38.0" y="129.0"/>
    </contour>
    <contour>
      <point x="176.0" y="280.0" type="qcurve" smooth="yes"/>
      <point x="175.0" y="179.0"/>
      <point x="268.0" y="87.0"/>
      <point x="358.0" y="87.0" type="qcurve" smooth="yes"/>
      <point x="453.0" y="87.0"/>
      <point x="728.0" y="227.0"/>
      <point x="769.0" y="403.0" type="qcurve" smooth="yes"/>
      <point x="872.0" y="874.0" type="line"/>
      <point x="877.0" y="908.0"/>
      <point x="811.0" y="973.0"/>
      <point x="697.0" y="973.0" type="qcurve" smooth="yes"/>
      <point x="463.0" y="973.0"/>
      <point x="179.0" y="496.0"/>
    </contour>
  </outline>
</glyph>
<glyph name="e" format="2">
  <advance width="956"/>
  <unicode hex="0065"/>
  <outline>
    <contour>
      <point x="38.0" y="532.0" type="qcurve" smooth="yes"/>
      <point x="88" y="772"/>
      <point x="426.0" y="1067.0"/>
      <point x="615" y="1067.0" type="qcurve" smooth="yes"/>
      <point x="732.0" y="1067.0"/>
      <point x="888.0" y="932.0"/>
      <point x="891.0" y="840.0" type="qcurve" smooth="yes"/>
      <point x="895.0" y="784.0"/>
      <point x="874.0" y="648.0"/>
      <point x="868.0" y="615.0" type="qcurve"/>
      <point x="906.0" y="593.0" type="line"/>
      <point x="887.0" y="512.0" type="line"/>
      <point x="843.0" y="518.0"/>
      <point x="656" y="516"/>
      <point x="585.0" y="516.0" type="qcurve" smooth="yes"/>
      <point x="111.0" y="514.0" type="line"/>
      <point x="131.0" y="609.0" type="line"/>
      <point x="751.0" y="612.0" type="line"/>
      <point x="758.0" y="641.0"/>
      <point x="772.0" y="750.0"/>
      <point x="768.0" y="812.0" type="qcurve" smooth="yes"/>
      <point x="764" y="875"/>
      <point x="687" y="953"/>
      <point x="585" y="953" type="qcurve" smooth="yes"/>
      <point x="454" y="953"/>
      <point x="192" y="713"/>
      <point x="149" y="508" type="qcurve" smooth="yes"/>
      <point x="105" y="300"/>
      <point x="220.0" y="82.0"/>
      <point x="348.0" y="82.0" type="qcurve" smooth="yes"/>
      <point x="482.0" y="82.0"/>
      <point x="704.0" y="223.0"/>
      <point x="754.0" y="291.0" type="qcurve"/>
      <point x="811.0" y="248.0" type="line"/>
      <point x="811.0" y="207.0" type="line"/>
      <point x="720" y="109"/>
      <point x="488" y="-23"/>
      <point x="326" y="-23" type="qcurve" smooth="yes"/>
      <point x="150" y="-23"/>
      <point x="-19" y="259"/>
    </contour>
  </outline>
</glyph>
<glyph name="f" format="2">
  <advance width="540"/>
  <unicode hex="0066"/>
  <outline>
    <contour>
      <point x="-329.0" y="-423.0" type="line"/>
      <point x="-316.0" y="-361.0" type="line"/>
      <point x="-201.0" y="-361.0" type="line" smooth="yes"/>
      <point x="-73.0" y="-361.0"/>
      <point x="1" y="-267"/>
      <point x="49.0" y="-33.0" type="qcurve" smooth="yes"/>
      <point x="249.0" y="940.0" type="line"/>
      <point x="255.0" y="970.0" type="line"/>
      <point x="310.0" y="1269.0" type="line" smooth="yes"/>
      <point x="342" y="1443"/>
      <point x="495.0" y="1582.0"/>
      <point x="567" y="1582.0" type="qcurve" smooth="yes"/>
      <point x="628.0" y="1582.0"/>
      <point x="715" y="1521"/>
      <point x="715.0" y="1476.0" type="qcurve" smooth="yes"/>
      <point x="715.0" y="1431.0"/>
      <point x="679.0" y="1387.0"/>
      <point x="648.0" y="1387.0" type="qcurve" smooth="yes"/>
      <point x="642" y="1387"/>
      <point x="613.0" y="1410.0"/>
      <point x="596.0" y="1425.0" type="qcurve" smooth="yes"/>
      <point x="574" y="1444"/>
      <point x="531.0" y="1477.0"/>
      <point x="525.0" y="1477.0" type="qcurve" smooth="yes"/>
      <point x="500.0" y="1477.0"/>
      <point x="450" y="1379"/>
      <point x="427.0" y="1261.0" type="qcurve" smooth="yes"/>
      <point x="369.0" y="973.0" type="line"/>
      <point x="364.0" y="957.0" type="line"/>
      <point x="190.0" y="82.0" type="line" smooth="yes"/>
      <point x="129" y="-223"/>
      <point x="-19" y="-474.0"/>
      <point x="-162.0" y="-474.0" type="qcurve"/>
    </contour>
    <contour>
      <point x="55.0" y="934.0" type="line"/>
      <point x="69.0" y="1008.0" type="line"/>
      <point x="278.0" y="1030.0" type="line"/>
      <point x="570.0" y="1010.0" type="line"/>
      <point x="542.0" y="925.0" type="line"/>
      <point x="305.0" y="922.0" type="line"/>
      <point x="298.0" y="904.0" type="line"/>
    </contour>
  </outline>
</glyph>
<glyph name="g" format="2">
  <advance width="1090"/>
  <unicode hex="0067"/>
  <outline>
    <contour>
      <point x="17" y="285" type="qcurve" smooth="yes"/>
      <point x="19" y="566"/>
      <point x="422" y="1049"/>
      <point x="662" y="1049" type="qcurve" smooth="yes"/>
      <point x="734" y="1049"/>
      <point x="839" y="1005"/>
      <point x="866" y="979" type="qcurve"/>
      <point x="894" y="1097" type="line"/>
      <point x="935" y="1097" type="line"/>
      <point x="992" y="950" type="line"/>
      <point x="881" y="516" type="line" smooth="yes"/>
      <point x="837" y="345"/>
      <point x="774" y="107"/>
      <point x="740" y="-9" type="qcurve" smooth="yes"/>
      <point x="659" y="-285"/>
      <point x="382" y="-464"/>
      <point x="196" y="-464" type="qcurve"/>
      <point x="-8" y="-410" type="line"/>
      <point x="17" y="-345" type="line"/>
      <point x="173" y="-345" type="line" smooth="yes"/>
      <point x="414" y="-345"/>
      <point x="587" y="-183"/>
      <point x="636" y="-8" type="qcurve" smooth="yes"/>
      <point x="689" y="180" type="line"/>
      <point x="615" y="105"/>
      <point x="393" y="-15"/>
      <point x="271" y="-15" type="qcurve" smooth="yes"/>
      <point x="155" y="-15"/>
      <point x="16" y="131"/>
    </contour>
    <contour>
      <point x="140" y="320" type="qcurve" smooth="yes"/>
      <point x="139" y="194"/>
      <point x="236" y="91"/>
      <point x="331" y="91" type="qcurve" smooth="yes"/>
      <point x="434" y="91"/>
      <point x="706" y="257"/>
      <point x="751" y="445" type="qcurve" smooth="yes"/>
      <point x="853" y="869" type="line"/>
      <point x="832" y="901"/>
      <point x="720" y="947"/>
      <point x="642" y="947" type="qcurve" smooth="yes"/>
      <point x="477" y="947"/>
      <point x="142" y="547"/>
    </contour>
  </outline>
</glyph>
<glyph name="h" format="2">
  <advance width="1215"/>
  <unicode hex="0068"/>
  <outline>
    <contour>
      <point x="79.0" y="-24.0" type="line"/>
      <point x="37.0" y="25.0" type="line"/>
      <point x="183.0" y="584.0" type="line"/>
      <point x="388.0" y="1475.0" type="line"/>
      <point x="206.0" y="1504.0" type="line"/>
      <point x="226.0" y="1570.0" type="line"/>
      <point x="480.0" y="1635.0" type="line"/>
      <point x="516.0" y="1593.0" type="line"/>
      <point x="309.0" y="655.0" type="line"/>
      <point x="173.0" y="124.0" type="line"/>
      <point x="235.0" y="28.0" type="line"/>
    </contour>
    <contour>
      <point x="786.0" y="-17.0" type="line"/>
      <point x="723.0" y="66.0" type="line"/>
      <point x="912.0" y="787.0" type="line" smooth="yes"/>
      <point x="935.0" y="870.0"/>
      <point x="834.0" y="960.0"/>
      <point x="757.0" y="960.0" type="qcurve" smooth="yes"/>
      <point x="659.0" y="960.0"/>
      <point x="380.0" y="699.0"/>
      <point x="302.0" y="559.0" type="qcurve"/>
      <point x="298.0" y="676.0" type="line"/>
      <point x="381.0" y="814.0"/>
      <point x="712.0" y="1072.0"/>
      <point x="830.0" y="1072.0" type="qcurve" smooth="yes"/>
      <point x="963.0" y="1072.0"/>
      <point x="1068.0" y="885.0"/>
      <point x="1028.0" y="738.0" type="qcurve" smooth="yes"/>
      <point x="860.0" y="124.0" type="line"/>
      <point x="1079.0" y="124.0" type="line"/>
      <point x="1077.0" y="43.0" type="line"/>
    </contour>
  </outline>
</glyph>
<glyph name="i" format="2">
  <advance width="495"/>
  <unicode hex="0069"/>
  <outline>
    <contour>
      <point x="95.0" y="-21.0" type="line"/>
      <point x="38.0" y="46.0" type="line"/>
      <point x="164.0" y="527.0" type="line"/>
      <point x="253.0" y="930.0" type="line"/>
      <point x="59.0" y="920.0" type="line"/>
      <point x="75.0" y="1011.0" type="line"/>
      <point x="334.0" y="1062.0" type="line"/>
      <point x="377.0" y="1028.0" type="line"/>
      <point x="391.0" y="974.0" type="line"/>
      <point x="345.0" y="792.0" type="line"/>
      <point x="175.0" y="121.0" type="line"/>
      <point x="368.0" y="123.0" type="line"/>
      <point x="368.0" y="52.0" type="line"/>
    </contour>
    <contour>
      <point x="245.0" y="1363.0" type="qcurve" smooth="yes"/>
      <point x="249.0" y="1409.0"/>
      <point x="324.0" y="1467.0"/>
      <point x="365.0" y="1467.0" type="qcurve" smooth="yes"/>
      <point x="413.0" y="1467.0"/>
      <point x="474.0" y="1406.0"/>
      <point x="470.0" y="1363.0" type="qcurve" smooth="yes"/>
      <point x="464.0" y="1318.0"/>
      <point x="388.0" y="1257.0"/>
      <point x="347.0" y="1257.0" type="qcurve" smooth="yes"/>
      <point x="309.0" y="1257.0"/>
      <point x="241.0" y="1312.0"/>
    </contour>
  </outline>
</glyph>
<glyph name="j" format="2">
  <advance width="519"/>
  <unicode hex="006A"/>
  <outline>
    <contour>
      <point x="258" y="928" type="qcurve"/>
      <point x="65" y="917" type="line"/>
      <point x="83" y="1013" type="line"/>
      <point x="353" y="1061" type="line"/>
      <point x="389" y="1028" type="line"/>
      <point x="402" y="995" type="line"/>
      <point x="356" y="785" type="line"/>
      <point x="204" y="94" type="line"/>
      <point x="127" y="-217"/>
      <point x="-65" y="-475"/>
      <point x="-241" y="-475" type="qcurve"/>
      <point x="-397" y="-416" type="line"/>
      <point x="-381" y="-354" type="line"/>
      <point x="-246" y="-354" type="line" smooth="yes"/>
      <point x="-125" y="-354"/>
      <point x="28" y="-161"/>
      <point x="84" y="93" type="qcurve" smooth="yes"/>
      <point x="130" y="301"/>
      <point x="239" y="795"/>
    </contour>
    <contour>
      <point x="273" y="1361" type="qcurve" smooth="yes"/>
      <point x="279" y="1412"/>
      <point x="344" y="1468"/>
      <point x="396" y="1468" type="qcurve" smooth="yes"/>
      <point x="444" y="1468"/>
      <point x="501" y="1409"/>
      <point x="496" y="1361" type="qcurve" smooth="yes"/>
      <point x="489" y="1311"/>
      <point x="424" y="1256"/>
      <point x="373" y="1256" type="qcurve" smooth="yes"/>
      <point x="325" y="1256"/>
      <point x="268" y="1315"/>
    </contour>
  </outline>
</glyph>
<glyph name="k" format="2">
  <advance width="1025"/>
  <unicode hex="006B"/>
  <outline>
    <contour>
      <point x="92.0" y="-23.0" type="line"/>
      <point x="47.0" y="24.0" type="line"/>
      <point x="188.0" y="587.0" type="line"/>
      <point x="356.0" y="1474.0" type="line"/>
      <point x="192.0" y="1504.0" type="line"/>
      <point x="212.0" y="1570.0" type="line"/>
      <point x="445.0" y="1634.0" type="line"/>
      <point x="481.0" y="1592.0" type="line"/>
      <point x="336.0" y="742.0" type="line"/>
      <point x="398.0" y="855.0"/>
      <point x="641.0" y="1070.0"/>
      <point x="730.0" y="1070.0" type="qcurve" smooth="yes"/>
      <point x="825.0" y="1070.0"/>
      <point x="929.0" y="939.0"/>
      <point x="929.0" y="853.0" type="qcurve" smooth="yes"/>
      <point x="929.0" y="784.0" type="line"/>
      <point x="895.0" y="733.0" type="line"/>
      <point x="595.0" y="526.0" type="line"/>
      <point x="791.0" y="125.0" type="line"/>
      <point x="967.0" y="121.0" type="line"/>
      <point x="965.0" y="45.0" type="line"/>
      <point x="813.0" y="1.0" type="line" smooth="yes"/>
      <point x="770" y="-11"/>
      <point x="718" y="14"/>
      <point x="680.0" y="93.0" type="qcurve" smooth="yes"/>
      <point x="502.0" y="469.0" type="line"/>
      <point x="202.0" y="252.0" type="line"/>
      <point x="172.0" y="327.0" type="line"/>
      <point x="812.0" y="777.0" type="line"/>
      <point x="812.0" y="852"/>
      <point x="765.0" y="943.0"/>
      <point x="693.0" y="943.0" type="qcurve" smooth="yes"/>
      <point x="615.0" y="943.0"/>
      <point x="384.0" y="730.0"/>
      <point x="316.0" y="621.0" type="qcurve"/>
      <point x="296.0" y="564.0" type="line"/>
      <point x="198.0" y="124.0" type="line"/>
      <point x="260.0" y="27.0" type="line"/>
    </contour>
  </outline>
</glyph>
<glyph name="l" format="2">
  <advance width="541"/>
  <unicode hex="006C"/>
  <outline>
    <contour>
      <point x="92" y="-23" type="line"/>
      <point x="45" y="23" type="line"/>
      <point x="176" y="587" type="line"/>
      <point x="350" y="1469" type="line"/>
      <point x="190" y="1503" type="line"/>
      <point x="210" y="1569" type="line"/>
      <point x="449" y="1634" type="line"/>
      <point x="485" y="1593" type="line"/>
      <point x="284" y="568" type="line"/>
      <point x="184" y="120" type="line"/>
      <point x="408" y="128" type="line"/>
      <point x="406" y="44" type="line"/>
    </contour>
  </outline>
</glyph>
<glyph name="m" format="2">
  <advance width="1861"/>
  <unicode hex="006D"/>
  <outline>
    <contour>
      <point x="89" y="-24" type="line"/>
      <point x="47" y="25" type="line"/>
      <point x="203" y="584" type="line"/>
      <point x="265" y="921" type="line"/>
      <point x="86" y="921" type="line"/>
      <point x="104" y="1018" type="line"/>
      <point x="348" y="1050" type="line"/>
      <point x="384" y="1050" type="line"/>
      <point x="357" y="787" type="line"/>
      <point x="340" y="639" type="line"/>
      <point x="193" y="124" type="line"/>
      <point x="255" y="24" type="line"/>
    </contour>
    <contour>
      <point x="768" y="-20" type="line"/>
      <point x="708" y="53" type="line"/>
      <point x="900" y="786" type="line" smooth="yes"/>
      <point x="922" y="869"/>
      <point x="844" y="953"/>
      <point x="767" y="953" type="qcurve" smooth="yes"/>
      <point x="657" y="953"/>
      <point x="388" y="703"/>
      <point x="310" y="563" type="qcurve"/>
      <point x="308" y="670" type="line"/>
      <point x="385" y="801"/>
      <point x="680" y="1072"/>
      <point x="827" y="1072" type="qcurve" smooth="yes"/>
      <point x="965" y="1072"/>
      <point x="1053" y="893"/>
      <point x="996" y="666" type="qcurve" smooth="yes"/>
      <point x="858" y="143" type="line"/>
      <point x="948" y="22" type="line"/>
    </contour>
    <contour>
      <point x="1431" y="-16" type="line"/>
      <point x="1364" y="67" type="line"/>
      <point x="1552" y="786" type="line" smooth="yes"/>
      <point x="1574" y="869"/>
      <point x="1496" y="953"/>
      <point x="1409" y="953" type="qcurve" smooth="yes"/>
      <point x="1311" y="953"/>
      <point x="1031" y="703"/>
      <point x="953" y="563" type="qcurve"/>
      <point x="951" y="670" type="line"/>
      <point x="1033" y="809"/>
      <point x="1353" y="1072"/>
      <point x="1471" y="1072" type="qcurve" smooth="yes"/>
      <point x="1604" y="1072"/>
      <point x="1710" y="886"/>
      <point x="1670" y="739" type="qcurve" smooth="yes"/>
      <point x="1503" y="124" type="line"/>
      <point x="1721" y="124" type="line"/>
      <point x="1719" y="43" type="line"/>
    </contour>
  </outline>
</glyph>
<glyph name="n" format="2">
  <advance width="1229"/>
  <unicode hex="006E"/>
  <outline>
    <contour>
      <point x="89.0" y="-24.0" type="line"/>
      <point x="47.0" y="25.0" type="line"/>
      <point x="203.0" y="584.0" type="line"/>
      <point x="265.0" y="921.0" type="line"/>
      <point x="86.0" y="921.0" type="line"/>
      <point x="104.0" y="1018.0" type="line"/>
      <point x="348.0" y="1050.0" type="line"/>
      <point x="384.0" y="1050.0" type="line"/>
      <point x="354.0" y="716.0" type="line"/>
      <point x="341.0" y="638.0" type="line"/>
      <point x="198.0" y="128.0" type="line"/>
      <point x="260.0" y="28.0" type="line"/>
    </contour>
    <contour>
      <point x="796.0" y="-17.0" type="line"/>
      <point x="733.0" y="66.0" type="line"/>
      <point x="917" y="768" type="line" smooth="yes"/>
      <point x="939" y="851"/>
      <point x="881" y="951.0"/>
      <point x="786" y="951.0" type="qcurve" smooth="yes"/>
      <point x="672" y="951"/>
      <point x="388.0" y="699.0"/>
      <point x="310.0" y="559.0" type="qcurve"/>
      <point x="308.0" y="676.0" type="line"/>
      <point x="401.0" y="835.0"/>
      <point x="722.0" y="1072.0"/>
      <point x="840.0" y="1072.0" type="qcurve" smooth="yes"/>
      <point x="973.0" y="1072.0"/>
      <point x="1078.0" y="886.0"/>
      <point x="1038.0" y="739.0" type="qcurve" smooth="yes"/>
      <point x="871.0" y="124.0" type="line"/>
      <point x="1089.0" y="124.0" type="line"/>
      <point x="1087.0" y="43.0" type="line"/>
    </contour>
  </outline>
</glyph>
<glyph name="o" format="2">
  <advance width="1138"/>
  <unicode hex="006F"/>
  <outline>
    <contour>
      <point x="37.0" y="574.0" type="qcurve" smooth="yes"/>
      <point x="88.0" y="820.0"/>
      <point x="431.0" y="1092.0"/>
      <point x="650.0" y="1077.0" type="qcurve" smooth="yes"/>
      <point x="869.0" y="1061.0"/>
      <point x="1077.0" y="729.0"/>
      <point x="1023.0" y="484.0" type="qcurve" smooth="yes"/>
      <point x="974.0" y="252.0"/>
      <point x="636.0" y="-41.0"/>
      <point x="415.0" y="-26.0" type="qcurve" smooth="yes"/>
      <point x="196.0" y="-11.0"/>
      <point x="-13.0" y="324.0"/>
    </contour>
    <contour>
      <point x="163.0" y="573.0" type="qcurve" smooth="yes"/>
      <point x="111.0" y="350.0"/>
      <point x="275.0" y="89.0"/>
      <point x="434.0" y="79.0" type="qcurve" smooth="yes"/>
      <point x="608.0" y="68.0"/>
      <point x="863.0" y="313.0"/>
      <point x="902.0" y="500.0" type="qcurve" smooth="yes"/>
      <point x="945.0" y="707.0"/>
      <point x="793.0" y="961.0"/>
      <point x="629.0" y="974.0" type="qcurve" smooth="yes"/>
      <point x="480.0" y="986.0"/>
      <point x="211.0" y="778.0"/>
    </contour>
  </outline>
</glyph>
<glyph name="p" format="2">
  <advance width="1116"/>
  <unicode hex="0070"/>
  <outline>
    <contour>
      <point x="-66.0" y="-414.0" type="line"/>
      <point x="148.0" y="487.0" type="line"/>
      <point x="212.0" y="782.0" type="line"/>
      <point x="170.0" y="1012.0" type="line"/>
      <point x="235.0" y="1060.0" type="line"/>
      <point x="297.0" y="1060.0" type="line"/>
      <point x="328.0" y="813.0" type="line"/>
      <point x="403.0" y="918.0"/>
      <point x="640" y="1071"/>
      <point x="772" y="1071.0" type="qcurve" smooth="yes"/>
      <point x="882" y="1071"/>
      <point x="1028.0" y="935.0"/>
      <point x="1028.0" y="766" type="qcurve" smooth="yes"/>
      <point x="1028.0" y="449.0"/>
      <point x="595.0" y="3.0"/>
      <point x="332.0" y="3.0" type="qcurve" smooth="yes"/>
      <point x="266.0" y="3.0"/>
      <point x="181.0" y="12.0"/>
      <point x="158.0" y="22.0" type="qcurve"/>
      <point x="76.0" y="-367.0" type="line"/>
      <point x="234.0" y="-399.0" type="line"/>
      <point x="213.0" y="-480.0" type="line"/>
      <point x="52.0" y="-514.0" type="line"/>
    </contour>
    <contour>
      <point x="202.0" y="198.0" type="line" smooth="yes"/>
      <point x="189" y="141"/>
      <point x="262" y="89.0"/>
      <point x="335.0" y="89.0" type="qcurve" smooth="yes"/>
      <point x="541" y="89"/>
      <point x="902" y="462"/>
      <point x="902.0" y="705" type="qcurve" smooth="yes"/>
      <point x="902.0" y="835.0"/>
      <point x="823.0" y="958.0"/>
      <point x="731" y="958.0" type="qcurve" smooth="yes"/>
      <point x="631" y="958"/>
      <point x="400.0" y="798.0"/>
      <point x="326.0" y="707.0" type="qcurve"/>
      <point x="264.0" y="473.0" type="line"/>
    </contour>
  </outline>
</glyph>
<glyph name="q" format="2">
  <advance width="1104"/>
  <unicode hex="0071"/>
  <outline>
    <contour>
      <point x="17" y="242" type="qcurve" smooth="yes"/>
      <point x="20" y="574"/>
      <point x="415" y="1052"/>
      <point x="668" y="1052" type="qcurve" smooth="yes"/>
      <point x="727" y="1052"/>
      <point x="834" y="1011"/>
      <point x="875" y="989" type="qcurve"/>
      <point x="917" y="1096" type="line"/>
      <point x="968" y="1096" type="line"/>
      <point x="995" y="946" type="line"/>
      <point x="870" y="452" type="line"/>
      <point x="715" y="-341" type="line"/>
      <point x="852" y="-374" type="line"/>
      <point x="832" y="-446" type="line"/>
      <point x="680" y="-480" type="line"/>
      <point x="582" y="-393" type="line"/>
      <point x="713" y="175" type="line"/>
      <point x="700" y="181" type="line"/>
      <point x="610" y="83"/>
      <point x="396" y="-20"/>
      <point x="270" y="-20" type="qcurve" smooth="yes"/>
      <point x="151" y="-20"/>
      <point x="16" y="125"/>
    </contour>
    <contour>
      <point x="143" y="280" type="qcurve" smooth="yes"/>
      <point x="142" y="175"/>
      <point x="243" y="87"/>
      <point x="325" y="87" type="qcurve" smooth="yes"/>
      <point x="446" y="87"/>
      <point x="718" y="258"/>
      <point x="760" y="444" type="qcurve" smooth="yes"/>
      <point x="858" y="876" type="line"/>
      <point x="840" y="900"/>
      <point x="736" y="948"/>
      <point x="652" y="948" type="qcurve" smooth="yes"/>
      <point x="463" y="948"/>
      <point x="146" y="547"/>
    </contour>
  </outline>
</glyph>
<glyph name="r" format="2">
  <advance width="884"/>
  <unicode hex="0072"/>
  <outline>
    <contour>
      <point x="116" y="-22" type="line"/>
      <point x="70" y="24" type="line"/>
      <point x="190" y="524" type="line"/>
      <point x="263" y="922" type="line"/>
      <point x="74" y="920" type="line"/>
      <point x="95" y="1016" type="line"/>
      <point x="342" y="1049" type="line"/>
      <point x="379" y="1049" type="line"/>
      <point x="393" y="950" type="line"/>
      <point x="303" y="527" type="line"/>
      <point x="211" y="120" type="line"/>
      <point x="427" y="130" type="line"/>
      <point x="427" y="48" type="line"/>
    </contour>
    <contour>
      <point x="712" y="750" type="line"/>
      <point x="740" y="935" type="line"/>
      <point x="653" y="935"/>
      <point x="431" y="753"/>
      <point x="294" y="568" type="qcurve"/>
      <point x="294" y="671" type="line"/>
      <point x="419" y="842"/>
      <point x="681" y="1062"/>
      <point x="781" y="1062" type="qcurve" smooth="yes"/>
      <point x="831" y="1062"/>
      <point x="881" y="1001"/>
      <point x="881" y="941" type="qcurve" smooth="yes"/>
      <point x="881" y="858"/>
      <point x="799" y="750"/>
      <point x="746" y="750" type="qcurve" smooth="yes"/>
    </contour>
  </outline>
</glyph>
<glyph name="s" format="2">
  <advance width="816"/>
  <unicode hex="0073"/>
  <outline>
    <contour>
      <point x="-15.0" y="170.0" type="qcurve" smooth="yes"/>
      <point x="-15.0" y="245.0"/>
      <point x="48" y="321"/>
      <point x="86.0" y="321.0" type="qcurve" smooth="yes"/>
      <point x="115.0" y="321.0" type="line"/>
      <point x="115.0" y="143.0" type="line" smooth="yes"/>
      <point x="115" y="98"/>
      <point x="213.0" y="63.0"/>
      <point x="316" y="63.0" type="qcurve" smooth="yes"/>
      <point x="443.0" y="63.0"/>
      <point x="593" y="156"/>
      <point x="593.0" y="238" type="qcurve" smooth="yes"/>
      <point x="593" y="307"/>
      <point x="514" y="398"/>
      <point x="369.0" y="488.0" type="qcurve" smooth="yes"/>
      <point x="225" y="577"/>
      <point x="123" y="699"/>
      <point x="123.0" y="810.0" type="qcurve" smooth="yes"/>
      <point x="123.0" y="921"/>
      <point x="303" y="1082.0"/>
      <point x="469" y="1082.0" type="qcurve" smooth="yes"/>
      <point x="611" y="1082"/>
      <point x="774" y="985"/>
      <point x="774.0" y="908.0" type="qcurve" smooth="yes"/>
      <point x="774.0" y="844.0"/>
      <point x="706.0" y="791.0"/>
      <point x="681.0" y="791.0" type="qcurve" smooth="yes"/>
      <point x="643.0" y="791.0" type="line"/>
      <point x="643.0" y="874" type="line" smooth="yes"/>
      <point x="643.0" y="933.0"/>
      <point x="555" y="985.0"/>
      <point x="455.0" y="985.0" type="qcurve" smooth="yes"/>
      <point x="350" y="985"/>
      <point x="238" y="911"/>
      <point x="238.0" y="841" type="qcurve" smooth="yes"/>
      <point x="238.0" y="768"/>
      <point x="333" y="666"/>
      <point x="451.0" y="591.0" type="qcurve" smooth="yes"/>
      <point x="584.0" y="506.0"/>
      <point x="708.0" y="373.0"/>
      <point x="708.0" y="272.0" type="qcurve" smooth="yes"/>
      <point x="708.0" y="143"/>
      <point x="492.0" y="-33.0"/>
      <point x="301.0" y="-33.0" type="qcurve" smooth="yes"/>
      <point x="149.0" y="-33.0"/>
      <point x="-15" y="78"/>
    </contour>
  </outline>
</glyph>
<glyph name="t" format="2">
  <advance width="573"/>
  <unicode hex="0074"/>
  <outline>
    <contour>
      <point x="109" y="-17" type="line"/>
      <point x="56" y="15" type="line"/>
      <point x="176" y="538" type="line"/>
      <point x="247" y="918" type="line"/>
      <point x="72" y="930" type="line"/>
      <point x="81" y="1006" type="line"/>
      <point x="226" y="1025"/>
      <point x="330" y="1170"/>
      <point x="364" y="1345" type="qcurve"/>
      <point x="432" y="1345" type="line"/>
      <point x="449" y="1294" type="line"/>
      <point x="280" y="510" type="line"/>
      <point x="196" y="115" type="line"/>
      <point x="426" y="127" type="line"/>
      <point x="426" y="48" type="line"/>
    </contour>
    <contour>
      <point x="288" y="934" type="line"/>
      <point x="321" y="1028" type="line"/>
      <point x="616" y="1008" type="line"/>
      <point x="593" y="923" type="line"/>
    </contour>
  </outline>
</glyph>
<glyph name="u" format="2">
  <advance width="1229"/>
  <unicode hex="0075"/>
  <outline>
    <contour>
      <point x="812.0" y="-16.0" type="line"/>
      <point x="776.0" y="68.0" type="line"/>
      <point x="786.0" y="262.0" type="line"/>
      <point x="943.0" y="951.0" type="line"/>
      <point x="893.0" y="1039.0" type="line"/>
      <point x="1028.0" y="1068.0" type="line"/>
      <point x="1080.0" y="984.0" type="line"/>
      <point x="910.0" y="296.0" type="line"/>
      <point x="875.0" y="120.0" type="line"/>
      <point x="1089.0" y="125.0" type="line"/>
      <point x="1087.0" y="43.0" type="line"/>
    </contour>
    <contour>
      <point x="110.0" y="276.0" type="qcurve" smooth="yes"/>
      <point x="263.0" y="924.0" type="line"/>
      <point x="61.0" y="922.0" type="line"/>
      <point x="73.0" y="1016.0" type="line"/>
      <point x="286.0" y="1048.0" type="line"/>
      <point x="355.0" y="1048.0" type="line"/>
      <point x="395.0" y="979.0" type="line"/>
      <point x="226.0" y="263.0" type="line" smooth="yes"/>
      <point x="205" y="174"/>
      <point x="280.0" y="87.0"/>
      <point x="366.0" y="87.0" type="qcurve" smooth="yes"/>
      <point x="474.0" y="87.0"/>
      <point x="768.0" y="258.0"/>
      <point x="869.0" y="367.0" type="qcurve"/>
      <point x="882.0" y="290.0" type="line"/>
      <point x="810.0" y="193.0"/>
      <point x="502" y="-19.0"/>
      <point x="347.0" y="-19.0" type="qcurve" smooth="yes"/>
      <point x="211" y="-19"/>
      <point x="74" y="124"/>
    </contour>
  </outline>
</glyph>
<glyph name="v" format="2">
  <advance width="929"/>
  <unicode hex="0076"/>
  <outline>
    <contour>
      <point x="-37" y="926" type="line"/>
      <point x="-35" y="1015" type="line"/>
      <point x="124" y="1050" type="line"/>
      <point x="219" y="1050" type="line"/>
      <point x="290" y="538" type="line"/>
      <point x="346" y="138" type="line"/>
      <point x="526" y="347"/>
      <point x="795" y="731"/>
      <point x="795" y="858" type="qcurve" smooth="yes"/>
      <point x="795" y="920"/>
      <point x="729" y="966"/>
      <point x="729" y="1003" type="qcurve" smooth="yes"/>
      <point x="729" y="1036"/>
      <point x="767" y="1080"/>
      <point x="812" y="1080" type="qcurve" smooth="yes"/>
      <point x="863" y="1080"/>
      <point x="928" y="989"/>
      <point x="928" y="918" type="qcurve" smooth="yes"/>
      <point x="928" y="791"/>
      <point x="650" y="365"/>
      <point x="304" y="-20" type="qcurve"/>
      <point x="244" y="-15" type="line"/>
      <point x="170" y="506" type="line"/>
      <point x="110" y="926" type="line"/>
    </contour>
  </outline>
</glyph>
<glyph name="w" format="2">
  <advance width="1433"/>
  <unicode hex="0077"/>
  <outline>
    <contour>
      <point x="-8" y="924" type="line"/>
      <point x="-6" y="1013" type="line"/>
      <point x="155" y="1050" type="line"/>
      <point x="237" y="1050" type="line"/>
      <point x="280" y="570" type="line"/>
      <point x="321" y="123" type="line"/>
      <point x="427" y="240"/>
      <point x="662" y="534"/>
      <point x="729" y="627" type="qcurve"/>
      <point x="756" y="521" type="line"/>
      <point x="681" y="417"/>
      <point x="440" y="136"/>
      <point x="302" y="-16" type="qcurve"/>
      <point x="223" y="-16" type="line"/>
      <point x="168" y="559" type="line"/>
      <point x="133" y="922" type="line"/>
    </contour>
    <contour>
      <point x="528" y="1015" type="line"/>
      <point x="689" y="1050" type="line"/>
      <point x="779" y="1050" type="line"/>
      <point x="818" y="578" type="line"/>
      <point x="854" y="138" type="line"/>
      <point x="1047" y="361"/>
      <point x="1297" y="742"/>
      <point x="1297" y="858" type="qcurve" smooth="yes"/>
      <point x="1297" y="923"/>
      <point x="1228" y="960"/>
      <point x="1230" y="998" type="qcurve" smooth="yes"/>
      <point x="1232" y="1040"/>
      <point x="1265" y="1080"/>
      <point x="1312" y="1079" type="qcurve" smooth="yes"/>
      <point x="1370" y="1077"/>
      <point x="1431" y="986"/>
      <point x="1431" y="919" type="qcurve" smooth="yes"/>
      <point x="1431" y="811"/>
      <point x="1170" y="380"/>
      <point x="829" y="-16" type="qcurve"/>
      <point x="763" y="-16" type="line"/>
      <point x="707" y="552" type="line"/>
      <point x="670" y="926" type="line"/>
      <point x="526" y="926" type="line"/>
    </contour>
  </outline>
</glyph>
<glyph name="x" format="2">
  <advance width="1043"/>
  <unicode hex="0078"/>
  <outline>
    <contour>
      <point x="137.0" y="932.0" type="line"/>
      <point x="110.0" y="982.0" type="line"/>
      <point x="303.0" y="1065.0" type="line"/>
      <point x="405.0" y="1046.0" type="line"/>
      <point x="566.0" y="614.0" type="line"/>
      <point x="755.0" y="99.0" type="line"/>
      <point x="911.0" y="116.0" type="line"/>
      <point x="928.0" y="45.0" type="line"/>
      <point x="735.0" y="-30.0" type="line"/>
      <point x="664.0" y="16.0" type="line"/>
      <point x="487.0" y="458.0" type="line"/>
      <point x="303.0" y="946.0" type="line"/>
    </contour>
    <contour>
      <point x="-125.0" y="73.0" type="line"/>
      <point x="-96.0" y="117.0" type="line"/>
      <point x="86.0" y="117.0" type="line" smooth="yes"/>
      <point x="150.0" y="117.0"/>
      <point x="374.0" y="389.0"/>
      <point x="496.0" y="571.0" type="qcurve" smooth="yes"/>
      <point x="619.0" y="757.0"/>
      <point x="896.0" y="1066.0"/>
      <point x="970.0" y="1066.0" type="qcurve" smooth="yes"/>
      <point x="1024.0" y="1066.0"/>
      <point x="1105.0" y="988.0"/>
      <point x="1105.0" y="916.0" type="qcurve" smooth="yes"/>
      <point x="1105.0" y="863.0"/>
      <point x="1022.0" y="781.0"/>
      <point x="963.0" y="781.0" type="qcurve"/>
      <point x="949.0" y="793.0" type="line"/>
      <point x="949.0" y="874.0" type="line"/>
      <point x="949.0" y="882.0"/>
      <point x="938.0" y="893.0"/>
      <point x="926.0" y="893.0" type="qcurve" smooth="yes"/>
      <point x="875.0" y="893.0"/>
      <point x="650.0" y="672.0"/>
      <point x="531.0" y="494.0" type="qcurve" smooth="yes"/>
      <point x="405.0" y="304.0"/>
      <point x="169.0" y="-28.0"/>
      <point x="50.0" y="-28.0" type="qcurve"/>
    </contour>
  </outline>
</glyph>
<glyph name="y" format="2">
  <advance width="918"/>
  <unicode hex="0079"/>
  <outline>
    <contour>
      <point x="-273" y="-407" type="line"/>
      <point x="-269" y="-347" type="line"/>
      <point x="-100" y="-345" type="line" smooth="yes"/>
      <point x="28" y="-343"/>
      <point x="223" y="-168"/>
      <point x="291" y="-74" type="qcurve" smooth="yes"/>
      <point x="345" y="0" type="line"/>
      <point x="345" y="1" type="line"/>
      <point x="281" y="284"/>
      <point x="169" y="748"/>
      <point x="119" y="927" type="qcurve"/>
      <point x="-23" y="927" type="line"/>
      <point x="-21" y="1016" type="line"/>
      <point x="147" y="1053" type="line"/>
      <point x="210" y="1053" type="line"/>
      <point x="247" y="956" type="line"/>
      <point x="437" y="119" type="line"/>
      <point x="619" y="371"/>
      <point x="766" y="717"/>
      <point x="766" y="823" type="qcurve" smooth="yes"/>
      <point x="766" y="888"/>
      <point x="688" y="956"/>
      <point x="688" y="1000" type="qcurve" smooth="yes"/>
      <point x="688" y="1036"/>
      <point x="729" y="1078"/>
      <point x="773" y="1078" type="qcurve" smooth="yes"/>
      <point x="829" y="1078"/>
      <point x="892" y="991"/>
      <point x="892" y="893" type="qcurve" smooth="yes"/>
      <point x="892" y="742"/>
      <point x="656" y="286"/>
      <point x="423" y="-30" type="qcurve" smooth="yes"/>
      <point x="398" y="-64" type="line" smooth="yes"/>
      <point x="264" y="-246"/>
      <point x="19" y="-464"/>
      <point x="-102" y="-464" type="qcurve"/>
    </contour>
  </outline>
</glyph>
<glyph name="z" format="2">
  <advance width="869"/>
  <unicode hex="007A"/>
  <outline>
    <contour>
      <point x="-37.0" y="-13.0" type="line"/>
      <point x="-86.0" y="46.0" type="line"/>
      <point x="31.0" y="159.0"/>
      <point x="291" y="471"/>
      <point x="368.0" y="553.0" type="qcurve" smooth="yes"/>
      <point x="441.0" y="631.0"/>
      <point x="642.0" y="857.0"/>
      <point x="711.0" y="938.0" type="qcurve"/>
      <point x="228.0" y="934.0" type="line"/>
      <point x="155.0" y="745.0" type="line"/>
      <point x="77.0" y="745.0" type="line"/>
      <point x="141.0" y="1019.0" type="line"/>
      <point x="189.0" y="1049.0" type="line"/>
      <point x="841.0" y="1049.0" type="line"/>
      <point x="860.0" y="987.0" type="line"/>
      <point x="781.0" y="884.0"/>
      <point x="529" y="577"/>
      <point x="450.0" y="491.0" type="qcurve" smooth="yes"/>
      <point x="372" y="407"/>
      <point x="196.0" y="224.0"/>
      <point x="142.0" y="167.0" type="qcurve"/>
      <point x="642.0" y="103.0" type="line"/>
      <point x="750.0" y="319.0" type="line"/>
      <point x="817.0" y="300.0" type="line"/>
      <point x="713.0" y="-1.0" type="line"/>
      <point x="675.0" y="-20.0" type="line"/>
      <point x="47.0" y="64.0" type="line"/>
    </contour>
  </outline>
</glyph>
<glyph name="braceleft" format="2">
  <advance width="616"/>
  <unicode hex="007B"/>
  <outline>
    <contour>
      <point x="-8.0" y="507.0" type="line"/>
      <point x="14.0" y="598.0" type="line"/>
      <point x="147.0" y="602.0" type="line" smooth="yes"/>
      <point x="204.0" y="604.0"/>
      <point x="271.0" y="660.0"/>
      <point x="282.0" y="716.0" type="qcurve" smooth="yes"/>
      <point x="305.0" y="834.0"/>
      <point x="217.0" y="1077.0"/>
      <point x="233.0" y="1184.0" type="qcurve" smooth="yes"/>
      <point x="256.0" y="1342.0"/>
      <point x="467.0" y="1510.0"/>
      <point x="624.0" y="1510.0" type="qcurve" smooth="yes"/>
      <point x="645.0" y="1510.0"/>
      <point x="694.0" y="1505.0"/>
      <point x="712.0" y="1500.0" type="qcurve"/>
      <point x="696.0" y="1409.0" type="line"/>
      <point x="676.0" y="1410.0"/>
      <point x="638.0" y="1411.0"/>
      <point x="609.0" y="1411.0" type="qcurve" smooth="yes"/>
      <point x="515.0" y="1411.0"/>
      <point x="373.0" y="1306.0"/>
      <point x="355.0" y="1196.0" type="qcurve" smooth="yes"/>
      <point x="336.0" y="1094.0"/>
      <point x="406" y="787"/>
      <point x="390.0" y="698.0" type="qcurve" smooth="yes"/>
      <point x="379.0" y="636.0"/>
      <point x="286.0" y="563.0"/>
      <point x="220.0" y="550.0" type="qcurve"/>
      <point x="298.0" y="526.0"/>
      <point x="344.0" y="434.0"/>
      <point x="330.0" y="364.0" type="qcurve" smooth="yes"/>
      <point x="312.0" y="273.0"/>
      <point x="78.0" y="-79.0"/>
      <point x="58.0" y="-180.0" type="qcurve" smooth="yes"/>
      <point x="38.0" y="-284.0"/>
      <point x="130.0" y="-393.0"/>
      <point x="222.0" y="-393.0" type="qcurve" smooth="yes"/>
      <point x="271.0" y="-393.0"/>
      <point x="309.0" y="-393.0"/>
      <point x="337.0" y="-391.0" type="qcurve"/>
      <point x="321.0" y="-484.0" type="line"/>
      <point x="298.0" y="-489.0"/>
      <point x="245.0" y="-495.0"/>
      <point x="217.0" y="-495.0" type="qcurve" smooth="yes"/>
      <point x="61.0" y="-495.0"/>
      <point x="-88.0" y="-327.0"/>
      <point x="-57.0" y="-168.0" type="qcurve" smooth="yes"/>
      <point x="-34.0" y="-50.0"/>
      <point x="210.0" y="286.0"/>
      <point x="233.0" y="404.0" type="qcurve"/>
      <point x="231.0" y="492.0" type="line"/>
    </contour>
  </outline>
</glyph>
<glyph name="bar" format="2">
  <advance width="592"/>
  <unicode hex="007C"/>
  <outline>
    <contour>
      <point x="254.0" y="-496.0" type="line"/>
      <point x="267.0" y="-58.0" type="line"/>
      <point x="270.0" y="250.0" type="line"/>
      <point x="270.0" y="830.0" type="line"/>
      <point x="270.0" y="1138.0" type="line"/>
      <point x="256.0" y="1554.0" type="line"/>
      <point x="373.0" y="1536.0" type="line"/>
      <point x="362.0" y="1138.0" type="line"/>
      <point x="363.0" y="830.0" type="line"/>
      <point x="363.0" y="250.0" type="line"/>
      <point x="361.0" y="-58.0" type="line"/>
      <point x="375.0" y="-514.0" type="line"/>
    </contour>
  </outline>
</glyph>
<glyph name="braceright" format="2">
  <advance width="616"/>
  <unicode hex="007D"/>
  <outline>
    <contour>
      <point x="-218.0" y="-486.0" type="qcurve"/>
      <point x="-201.0" y="-393.0" type="line"/>
      <point x="-181.0" y="-394.0"/>
      <point x="-143.0" y="-395.0"/>
      <point x="-114.0" y="-395.0" type="qcurve" smooth="yes"/>
      <point x="-20.0" y="-395.0"/>
      <point x="116.0" y="-292.0"/>
      <point x="135.0" y="-182.0" type="qcurve" smooth="yes"/>
      <point x="153.0" y="-80.0"/>
      <point x="119.0" y="280.0"/>
      <point x="134.0" y="369.0" type="qcurve" smooth="yes"/>
      <point x="155.0" y="489.0"/>
      <point x="259.0" y="523.0"/>
      <point x="310.0" y="523.0" type="qcurve"/>
      <point x="223.0" y="560.0"/>
      <point x="190.0" y="658.0"/>
      <point x="199.0" y="703.0" type="qcurve" smooth="yes"/>
      <point x="217.0" y="794.0"/>
      <point x="431.0" y="1093.0"/>
      <point x="452.0" y="1194.0" type="qcurve" smooth="yes"/>
      <point x="471.0" y="1298.0"/>
      <point x="375.0" y="1409.0"/>
      <point x="283.0" y="1409.0" type="qcurve" smooth="yes"/>
      <point x="234.0" y="1409.0"/>
      <point x="196.0" y="1409.0"/>
      <point x="168.0" y="1407.0" type="qcurve"/>
      <point x="183.0" y="1498.0" type="line"/>
      <point x="207.0" y="1503.0"/>
      <point x="259.0" y="1510.0"/>
      <point x="287.0" y="1510.0" type="qcurve" smooth="yes"/>
      <point x="443.0" y="1510.0"/>
      <point x="598.0" y="1341.0"/>
      <point x="567.0" y="1182.0" type="qcurve" smooth="yes"/>
      <point x="544.0" y="1064.0"/>
      <point x="355.0" y="829.0"/>
      <point x="332.0" y="729.0" type="qcurve"/>
      <point x="295.0" y="609.0" type="line"/>
      <point x="545.0" y="589.0" type="line"/>
      <point x="523.0" y="498.0" type="line"/>
      <point x="402.0" y="491.0" type="line" smooth="yes"/>
      <point x="357.0" y="488.0"/>
      <point x="278.0" y="451.0"/>
      <point x="256.0" y="377.0" type="qcurve" smooth="yes"/>
      <point x="210.0" y="217.0"/>
      <point x="273.0" y="-63.0"/>
      <point x="257.0" y="-170.0" type="qcurve" smooth="yes"/>
      <point x="234.0" y="-328.0"/>
      <point x="27.0" y="-495.0"/>
      <point x="-130.0" y="-495.0" type="qcurve" smooth="yes"/>
      <point x="-151.0" y="-495.0"/>
      <point x="-199.0" y="-491.0"/>
    </contour>
  </outline>
</glyph>
<glyph name="asciitilde" format="2">
  <advance width="905"/>
  <unicode hex="007E"/>
  <outline>
    <contour>
      <point x="-4.0" y="621.0" type="line"/>
      <point x="72.0" y="720.0"/>
      <point x="233.0" y="818.0"/>
      <point x="321.0" y="818.0" type="qcurve"/>
      <point x="618.0" y="692.0" type="line"/>
      <point x="697.0" y="691.0"/>
      <point x="791.0" y="745.0"/>
      <point x="834.0" y="799.0" type="qcurve"/>
      <point x="895.0" y="751.0" type="line"/>
      <point x="841.0" y="672.0"/>
      <point x="703.0" y="595.0"/>
      <point x="590.0" y="599.0" type="qcurve"/>
      <point x="295.0" y="720.0" type="line"/>
      <point x="241.0" y="720.0"/>
      <point x="141.0" y="655.0"/>
      <point x="48.0" y="569.0" type="qcurve"/>
    </contour>
  </outline>
</glyph>
<glyph name="currency" format="2">
  <advance width="1364"/>
  <unicode hex="00A4"/>
  <outline>
    <contour>
      <point x="245.0" y="799.0" type="qcurve" smooth="yes"/>
      <point x="245.0" y="978.0"/>
      <point x="481.0" y="1230.0"/>
      <point x="673.0" y="1230.0" type="qcurve" smooth="yes"/>
      <point x="866.0" y="1230.0"/>
      <point x="1104.0" y="994.0"/>
      <point x="1104.0" y="803.0" type="qcurve" smooth="yes"/>
      <point x="1104.0" y="625.0"/>
      <point x="869.0" y="368.0"/>
      <point x="678.0" y="368.0" type="qcurve" smooth="yes"/>
      <point x="486.0" y="368.0"/>
      <point x="245.0" y="606.0"/>
    </contour>
    <contour>
      <point x="356.0" y="817.0" type="qcurve" smooth="yes"/>
      <point x="357.0" y="650.0"/>
      <point x="523.0" y="464.0"/>
      <point x="671.0" y="464.0" type="qcurve" smooth="yes"/>
      <point x="832.0" y="464.0"/>
      <point x="989.0" y="642.0"/>
      <point x="989.0" y="805.0" type="qcurve" smooth="yes"/>
      <point x="989.0" y="953.0"/>
      <point x="825.0" y="1129.0"/>
      <point x="673.0" y="1129.0" type="qcurve" smooth="yes"/>
      <point x="511.0" y="1129.0"/>
      <point x="355.0" y="950.0"/>
    </contour>
    <contour>
      <point x="418.0" y="1061.0" type="line"/>
      <point x="178.0" y="1300.0" type="line"/>
      <point x="242.0" y="1372.0" type="line"/>
      <point x="479.0" y="1130.0" type="line"/>
    </contour>
    <contour>
      <point x="947.0" y="1051.0" type="line"/>
      <point x="884.0" y="1119.0" type="line"/>
      <point x="1124.0" y="1360.0" type="line"/>
      <point x="1186.0" y="1292.0" type="line"/>
    </contour>
    <contour>
      <point x="426.0" y="524.0" type="line"/>
      <point x="487.0" y="455.0" type="line"/>
      <point x="239.0" y="206.0" type="line"/>
      <point x="178.0" y="275.0" type="line"/>
    </contour>
    <contour>
      <point x="933.0" y="534.0" type="line"/>
      <point x="1171.0" y="294.0" type="line"/>
      <point x="1110.0" y="226.0" type="line"/>
      <point x="871.0" y="466.0" type="line"/>
    </contour>
  </outline>
</glyph>
<glyph name="acute" format="2">
  <advance width="1024"/>
  <unicode hex="00B4"/>
  <outline>
    <contour>
      <point x="542.0" y="1188.0" type="line"/>
      <point x="792.0" y="1409.0" type="line" smooth="yes"/>
      <point x="823" y="1436"/>
      <point x="880.0" y="1486.0"/>
      <point x="907.0" y="1483.0" type="qcurve" smooth="yes"/>
      <point x="928.0" y="1481.0"/>
      <point x="958.0" y="1445.0"/>
      <point x="955.0" y="1417.0" type="qcurve" smooth="yes"/>
      <point x="952.0" y="1394.0"/>
      <point x="905" y="1353"/>
      <point x="871.0" y="1332.0" type="qcurve" smooth="yes"/>
      <point x="573.0" y="1145.0" type="line"/>
    </contour>
  </outline>
</glyph>
<glyph name="Schwa" format="2">
  <advance width="1247"/>
  <unicode hex="018F"/>
  <outline>
    <contour>
      <point x="158.0" y="1254.0" type="line"/>
      <point x="261.0" y="1398.0"/>
      <point x="621.0" y="1576.0"/>
      <point x="866.0" y="1540.0" type="qcurve" smooth="yes"/>
      <point x="1087.0" y="1508.0"/>
      <point x="1325.0" y="1022.0"/>
      <point x="1227.0" y="636.0" type="qcurve" smooth="yes"/>
      <point x="1141.0" y="299.0"/>
      <point x="671.0" y="-69.0"/>
      <point x="379.0" y="-42.0" type="qcurve" smooth="yes"/>
      <point x="196.0" y="-24.0"/>
      <point x="0.0" y="160.0"/>
      <point x="0.0" y="309.0" type="qcurve" smooth="yes"/>
      <point x="0.0" y="342.0"/>
      <point x="5.0" y="396.0"/>
      <point x="14.0" y="441.0" type="qcurve"/>
      <point x="73.0" y="502.0" type="line"/>
      <point x="1048.0" y="502.0" type="line"/>
      <point x="1070.0" y="551.0"/>
      <point x="1088.0" y="597.0"/>
      <point x="1104.0" y="660.0" type="qcurve" smooth="yes"/>
      <point x="1194.0" y="1000.0"/>
      <point x="987.0" y="1386.0"/>
      <point x="784.0" y="1424.0" type="qcurve" smooth="yes"/>
      <point x="616.0" y="1457.0"/>
      <point x="352.0" y="1302.0"/>
      <point x="258.0" y="1163.0" type="qcurve"/>
      <point x="216.0" y="1184.0" type="line"/>
    </contour>
    <contour>
      <point x="411.0" y="56.0" type="qcurve" smooth="yes"/>
      <point x="563.0" y="36.0"/>
      <point x="860.0" y="219.0"/>
      <point x="961.0" y="397.0" type="qcurve"/>
      <point x="537.0" y="400.0" type="line"/>
      <point x="184.0" y="398.0" type="line" smooth="yes"/>
      <point x="131.0" y="398.0"/>
      <point x="94.0" y="324.0"/>
      <point x="92.0" y="276.0" type="qcurve" smooth="yes"/>
      <point x="98.0" y="178.0"/>
      <point x="280.0" y="70.0"/>
    </contour>
  </outline>
</glyph>
<glyph name="circumflex" format="2">
  <advance width="1024"/>
  <unicode hex="02C6"/>
  <outline>
    <contour>
      <point x="725.0" y="1490.0" type="qcurve" smooth="yes"/>
      <point x="752.0" y="1490.0"/>
      <point x="784.0" y="1457.0"/>
      <point x="804.0" y="1417.0" type="qcurve" smooth="yes"/>
      <point x="947.0" y="1174.0" type="line"/>
      <point x="904.0" y="1141.0" type="line"/>
      <point x="714.0" y="1374.0" type="line"/>
      <point x="394.0" y="1141.0" type="line"/>
      <point x="361.0" y="1177.0" type="line"/>
      <point x="610.0" y="1417.0" type="line" smooth="yes"/>
      <point x="661.0" y="1466.0"/>
      <point x="697.0" y="1490.0"/>
    </contour>
  </outline>
</glyph>
<glyph name="quotesinglbase" format="2">
  <advance width="523"/>
  <unicode hex="201A"/>
  <outline>
    <contour>
      <point x="47.0" y="-166.0" type="line"/>
      <point x="86.0" y="-138.0"/>
      <point x="186.0" y="-47.0"/>
      <point x="205.0" y="8.0" type="qcurve"/>
      <point x="152.0" y="8.0"/>
      <point x="93.0" y="59.0"/>
      <point x="93.0" y="100.0" type="qcurve" smooth="yes"/>
      <point x="93.0" y="139.0"/>
      <point x="156.0" y="197.0"/>
      <point x="202.0" y="197.0" type="qcurve" smooth="yes"/>
      <point x="246.0" y="197.0"/>
      <point x="310.0" y="136.0"/>
      <point x="310.0" y="78.0" type="qcurve" smooth="yes"/>
      <point x="310.0" y="8.0"/>
      <point x="168.0" y="-170.0"/>
      <point x="89.0" y="-218.0" type="qcurve"/>
    </contour>
  </outline>
</glyph>
<glyph name="dagger" format="2">
  <advance width="994"/>
  <unicode hex="2020"/>
  <outline>
    <contour>
      <point x="260.0" y="-540.0" type="line"/>
      <point x="300.0" y="-58.0" type="line"/>
      <point x="432.0" y="550.0" type="line"/>
      <point x="489.0" y="830.0" type="line"/>
      <point x="602.0" y="1468.0" type="line"/>
      <point x="639.0" y="1506.0" type="line"/>
      <point x="729.0" y="1506.0" type="line"/>
      <point x="758.0" y="1468.0" type="line"/>
      <point x="599.0" y="830.0" type="line"/>
      <point x="542.0" y="550.0" type="line"/>
      <point x="436.0" y="-58.0" type="line"/>
      <point x="280.0" y="-540.0" type="line"/>
    </contour>
    <contour>
      <point x="156.0" y="880.0" type="line"/>
      <point x="159.0" y="962.0" type="line"/>
      <point x="562.0" y="954.0" type="line"/>
      <point x="961.0" y="962.0" type="line"/>
      <point x="958.0" y="880.0" type="line"/>
      <point x="559.0" y="884.0" type="line"/>
    </contour>
  </outline>
</glyph>
<glyph name="peso" format="2">
  <advance width="1215"/>
  <unicode hex="20B1"/>
  <outline>
    <contour>
      <point x="1234.0" y="859.0" type="line"/>
      <point x="988.0" y="859.0" type="line"/>
      <point x="990.0" y="868.0" type="line"/>
      <point x="822.0" y="868.0" type="line"/>
      <point x="798.0" y="936.0" type="line"/>
      <point x="1024.0" y="936.0" type="line"/>
      <point x="1026.0" y="947.0" type="line"/>
      <point x="1252.0" y="947.0" type="line"/>
    </contour>
    <contour>
      <point x="158.0" y="859.0" type="line"/>
      <point x="170.0" y="947.0" type="line"/>
      <point x="369.0" y="947.0" type="line"/>
      <point x="365.0" y="936.0" type="line"/>
      <point x="798.0" y="936.0" type="line"/>
      <point x="822.0" y="868.0" type="line"/>
      <point x="352.0" y="868.0" type="line"/>
      <point x="350.0" y="859.0" type="line"/>
    </contour>
    <contour>
      <point x="1301.0" y="1161.0" type="line"/>
      <point x="1085.0" y="1161.0" type="line"/>
      <point x="1087.0" y="1170.0" type="line"/>
      <point x="850.0" y="1170.0" type="line"/>
      <point x="826.0" y="1238.0" type="line"/>
      <point x="1121.0" y="1238.0" type="line"/>
      <point x="1133.0" y="1249.0" type="line"/>
      <point x="1319.0" y="1249.0" type="line"/>
    </contour>
    <contour>
      <point x="195.0" y="1161.0" type="line"/>
      <point x="207.0" y="1249.0" type="line"/>
      <point x="416.0" y="1249.0" type="line"/>
      <point x="412.0" y="1238.0" type="line"/>
      <point x="826.0" y="1238.0" type="line"/>
      <point x="850.0" y="1170.0" type="line"/>
      <point x="399.0" y="1170.0" type="line"/>
      <point x="397.0" y="1161.0" type="line"/>
    </contour>
    <contour>
      <point x="-7.0" y="0.0" type="line"/>
      <point x="14.0" y="96.0" type="line"/>
      <point x="193.0" y="117.0" type="line"/>
      <point x="321.0" y="754.0" type="line"/>
      <point x="444.0" y="1382.0" type="line"/>
      <point x="234.0" y="1404.0" type="line"/>
      <point x="243.0" y="1500.0" type="line"/>
      <point x="794.0" y="1500.0" type="line" smooth="yes"/>
      <point x="1011.0" y="1501.0"/>
      <point x="1204.0" y="1289.0"/>
      <point x="1162.0" y="1031.0" type="qcurve" smooth="yes"/>
      <point x="1114.0" y="749.0"/>
      <point x="790.0" y="605.0"/>
      <point x="561.0" y="605.0" type="qcurve" smooth="yes"/>
      <point x="482.0" y="605.0"/>
      <point x="362.0" y="618.0"/>
      <point x="322.0" y="634.0" type="qcurve"/>
      <point x="341.0" y="733.0" type="line"/>
      <point x="393.0" y="724.0"/>
      <point x="504.0" y="706.0"/>
      <point x="577.0" y="706.0" type="qcurve" smooth="yes"/>
      <point x="772.0" y="706.0"/>
      <point x="995.0" y="794.0"/>
      <point x="1039.0" y="1017.0" type="qcurve" smooth="yes"/>
      <point x="1079.0" y="1223.0"/>
      <point x="953.0" y="1408.0"/>
      <point x="766.0" y="1408.0" type="qcurve" smooth="yes"/>
      <point x="598.0" y="1408.0" type="line"/>
      <point x="572.0" y="1386.0" type="line"/>
      <point x="443.0" y="764.0" type="line"/>
      <point x="323.0" y="122.0" type="line"/>
      <point x="529.0" y="93.0" type="line"/>
      <point x="512.0" y="0.0" type="line"/>
    </contour>
  </outline>
</glyph>
<glyph name="Z" format="2">
  <advance width="1070"/>
  <outline>
    <contour>
      <point x="-50" y="0" type="line"/>
      <point x="-60" y="72" type="line"/>
      <point x="514" y="792" type="line"/>
      <point x="989" y="1391" type="line"/>
      <point x="979" y="1407" type="line"/>
      <point x="381" y="1407" type="line"/>
      <point x="274" y="1153" type="line"/>
      <point x="186" y="1153" type="line"/>
      <point x="261" y="1500" type="line"/>
      <point x="1169" y="1500" type="line"/>
      <point x="1161" y="1429" type="line"/>
      <point x="604" y="737" type="line"/>
      <point x="111" y="109" type="line"/>
      <point x="121" y="103" type="line"/>
      <point x="772" y="103" type="line"/>
      <point x="891" y="369" type="line"/>
      <point x="980" y="369" type="line"/>
      <point x="882" y="0" type="line"/>
    </contour>
  </outline>
</glyph>
<glyph name="dieresiscombstack.case" format="2">
  <advance width="1024"/>
  <outline>
    <contour>
      <point x="429.0" y="1720.0" type="qcurve" smooth="yes"/>
      <point x="429.0" y="1761.0"/>
      <point x="465.0" y="1796.0"/>
      <point x="508.0" y="1796.0" type="qcurve" smooth="yes"/>
      <point x="546.0" y="1796.0"/>
      <point x="585.0" y="1755.0"/>
      <point x="585.0" y="1720.0" type="qcurve" smooth="yes"/>
      <point x="585.0" y="1678.0"/>
      <point x="552.0" y="1643.0"/>
      <point x="508.0" y="1643.0" type="qcurve" smooth="yes"/>
      <point x="469.0" y="1643.0"/>
      <point x="429.0" y="1683.0"/>
    </contour>
    <contour>
      <point x="761.0" y="1720.0" type="qcurve" smooth="yes"/>
      <point x="761.0" y="1761.0"/>
      <point x="795.0" y="1796.0"/>
      <point x="838.0" y="1796.0" type="qcurve" smooth="yes"/>
      <point x="876.0" y="1796.0"/>
      <point x="916.0" y="1755.0"/>
      <point x="916.0" y="1720.0" type="qcurve" smooth="yes"/>
      <point x="916.0" y="1678.0"/>
      <point x="882.0" y="1643.0"/>
      <point x="838.0" y="1643.0" type="qcurve" smooth="yes"/>
      <point x="799.0" y="1643.0"/>
      <point x="761.0" y="1683.0"/>
    </contour>
  </outline>
</glyph>
<glyph name="eight.lf" format="2">
  <advance width="1091"/>
  <outline>
    <contour>
      <point x="-5.0" y="311.0" type="qcurve" smooth="yes"/>
      <point x="-5.0" y="479.0"/>
      <point x="297.0" y="770.0"/>
      <point x="536.0" y="868.0" type="qcurve"/>
      <point x="608.0" y="802.0" type="line"/>
      <point x="398.0" y="711.0"/>
      <point x="127.0" y="481.0"/>
      <point x="127.0" y="322.0" type="qcurve" smooth="yes"/>
      <point x="127.0" y="202.0"/>
      <point x="275.0" y="72.0"/>
      <point x="442.0" y="72.0" type="qcurve" smooth="yes"/>
      <point x="628.0" y="72.0"/>
      <point x="877.0" y="245.0"/>
      <point x="877.0" y="407.0" type="qcurve" smooth="yes"/>
      <point x="877.0" y="522.0"/>
      <point x="655.0" y="721.0"/>
      <point x="539.0" y="794.0" type="qcurve" smooth="yes"/>
      <point x="442.0" y="854.0"/>
      <point x="287.0" y="1042.0"/>
      <point x="287.0" y="1172.0" type="qcurve" smooth="yes"/>
      <point x="287.0" y="1315.0"/>
      <point x="510.0" y="1540.0"/>
      <point x="736.0" y="1540.0" type="qcurve" smooth="yes"/>
      <point x="899.0" y="1540.0"/>
      <point x="1069.0" y="1361.0"/>
      <point x="1069.0" y="1244.0" type="qcurve" smooth="yes"/>
      <point x="1069.0" y="1074.0"/>
      <point x="837.0" y="895.0"/>
      <point x="656.0" y="806.0" type="qcurve"/>
      <point x="588.0" y="878.0" type="line"/>
      <point x="756.0" y="960.0"/>
      <point x="985.0" y="1120.0"/>
      <point x="988.0" y="1212.0" type="qcurve" smooth="yes"/>
      <point x="991.0" y="1306.0"/>
      <point x="849.0" y="1434.0"/>
      <point x="725.0" y="1434.0" type="qcurve" smooth="yes"/>
      <point x="571.0" y="1434.0"/>
      <point x="397.0" y="1290.0"/>
      <point x="397.0" y="1184.0" type="qcurve" smooth="yes"/>
      <point x="397.0" y="1075.0"/>
      <point x="576.0" y="929.0"/>
      <point x="708.0" y="835.0" type="qcurve" smooth="yes"/>
      <point x="880.0" y="712.0"/>
      <point x="988.0" y="523.0"/>
      <point x="988.0" y="388.0" type="qcurve" smooth="yes"/>
      <point x="988.0" y="191.0"/>
      <point x="688.0" y="-31.0"/>
      <point x="436.0" y="-31.0" type="qcurve" smooth="yes"/>
      <point x="241.0" y="-31.0"/>
      <point x="-5.0" y="158.0"/>
    </contour>
  </outline>
</glyph>
